<?xml version="1.0"?>
<!DOCTYPE svg PUBLIC "-//W3C//DTD SVG 1.1//EN" "http://www.w3.org/Graphics/SVG/1.1/DTD/svg11.dtd">
<svg width="339.2447150476779mm" height="182.32449706399063mm" viewBox="0 0 339.2447150476779 182.32449706399063" xmlns="http://www.w3.org/2000/svg" version="1.1">
<g id="Sketch" transform="translate(1.032861,178.120959) scale(1,-1)">
<circle cx="177.09589070396927" cy="122.86370192212134" r="2.25" stroke="#f1f3f5" stroke-width="0.7 px" style="stroke-width:0.7;stroke-miterlimit:4;stroke-dasharray:none;stroke-linecap:square;fill:none"/>
<circle cx="177.09589070396927" cy="150.33870192212134" r="13.865" stroke="#f1f3f5" stroke-width="0.7 px" style="stroke-width:0.7;stroke-miterlimit:4;stroke-dasharray:none;stroke-linecap:square;fill:none"/>
<path id="Sketch_w0002"  d="M 173.32589070396926 116.3800995283899 A 7.5 7.5 0 0 1 183.796 119.494L 195.3465783622467 142.15870192212134 A 20 20 0 1 1 157.096 150.339L 157.09589070396927 124.45120192212134 L 167.09589070396927 124.45120192212134 L 167.09589070396927 121.27620192212134 L 157.09589070396927 121.27620192212134 L 157.09589070396927 119.27620192212134 L 173.32589070396926 116.3800995283899 " stroke="#f1f3f5" stroke-width="0.7 px" style="stroke-width:0.7;stroke-miterlimit:4;stroke-dasharray:none;stroke-linecap:square;fill:none;fill-opacity:1;fill-rule: evenodd"/>
<path id="Sketch_w0003"  d="M 182.293067622341 -0.8776093476913929 L 172.293067622341 -0.8776093476913929 L 172.293067622341 2.1223906523086074 L 97.29306762234098 2.1223906523086074 L 97.29306762234098 -0.8776093476913926 L 87.29306762234098 -0.8776093476913926 L 87.29306762234098 2.1223906523086074 L 12.293067622340988 2.1223906523086074 L 12.29306762234099 -0.8776093476913935 L 2.29306762234099 -0.8776093476913935 L 2.29306762234099 17.822390652308606 L 9.29306762234099 17.822390652308606 L 9.29306762234099 20.622390652308606 L 2.29306762234099 20.622390652308606 L 2.29306762234099 45.6223906523086 L 9.293067622340988 45.6223906523086 L 9.293067622340988 48.42239065230861 L 27.29306762234099 48.42239065230861 L 27.29306762234099 64.12239065230861 L 37.29306762234099 64.12239065230861 L 37.29306762234099 61.1223906523086 L 87.29306762234098 61.1223906523086 L 87.29306762234098 64.12239065230861 L 97.29306762234098 64.12239065230861 L 97.29306762234098 61.1223906523086 L 172.293067622341 61.1223906523086 L 172.293067622341 64.12239065230861 L 182.293067622341 64.12239065230861 L 182.293067622341 54.52239065230861 L 167.293067622341 54.52239065230861 L 167.293067622341 31.522390652308605 L 182.293067622341 31.522390652308605 L 182.293067622341 -0.8776093476913929 " stroke="#f1f3f5" stroke-width="0.7 px" style="stroke-width:0.7;stroke-miterlimit:4;stroke-dasharray:none;stroke-linecap:square;fill:none;fill-opacity:1;fill-rule: evenodd"/>
<path id="Sketch_w0004"  d="M 107.29306762234098 24.422390652308607 L 107.29306762234098 21.62239065230861 L 117.29306762234098 21.62239065230861 L 117.29306762234098 24.422390652308607 L 107.29306762234098 24.422390652308607 " stroke="#f1f3f5" stroke-width="0.7 px" style="stroke-width:0.7;stroke-miterlimit:4;stroke-dasharray:none;stroke-linecap:square;fill:none;fill-opacity:1;fill-rule: evenodd"/>
<path id="Sketch_w0005"  d="M 67.29306762234098 24.422390652308607 L 67.29306762234098 21.62239065230861 L 77.29306762234098 21.62239065230861 L 77.29306762234098 24.422390652308607 L 67.29306762234098 24.422390652308607 " stroke="#f1f3f5" stroke-width="0.7 px" style="stroke-width:0.7;stroke-miterlimit:4;stroke-dasharray:none;stroke-linecap:square;fill:none;fill-opacity:1;fill-rule: evenodd"/>
<path id="Sketch_w0006"  d="M 107.29306762234098 41.62239065230861 L 107.29306762234098 38.822390652308606 L 117.29306762234098 38.822390652308606 L 117.29306762234098 41.62239065230861 L 107.29306762234098 41.62239065230861 " stroke="#f1f3f5" stroke-width="0.7 px" style="stroke-width:0.7;stroke-miterlimit:4;stroke-dasharray:none;stroke-linecap:square;fill:none;fill-opacity:1;fill-rule: evenodd"/>
<path id="Sketch_w0007"  d="M 67.29306762234098 41.62239065230861 L 67.29306762234098 38.822390652308606 L 77.29306762234098 38.822390652308606 L 77.29306762234098 41.62239065230861 L 67.29306762234098 41.62239065230861 " stroke="#f1f3f5" stroke-width="0.7 px" style="stroke-width:0.7;stroke-miterlimit:4;stroke-dasharray:none;stroke-linecap:square;fill:none;fill-opacity:1;fill-rule: evenodd"/>
<path id="Sketch_w0008"  d="M 64.33034596453257 157.70503055850162 A 20 20 0 0 0 103.905 157.705L 109.11751099644151 121.79503055850164 L 109.11751099644151 114.79503055850164 L 99.11751099644151 114.79503055850164 L 99.11751099644151 121.79503055850164 L 69.11751099644151 121.79503055850164 L 69.11751099644151 114.79503055850164 L 59.1175109964415 114.79503055850164 L 59.1175109964415 121.79503055850164 L 64.33034596453257 157.70503055850162 " stroke="#f1f3f5" stroke-width="0.7 px" style="stroke-width:0.7;stroke-miterlimit:4;stroke-dasharray:none;stroke-linecap:square;fill:none;fill-opacity:1;fill-rule: evenodd"/>
<circle cx="84.11751099644151" cy="154.79503055850162" r="10.9" stroke="#f1f3f5" stroke-width="0.7 px" style="stroke-width:0.7;stroke-miterlimit:4;stroke-dasharray:none;stroke-linecap:square;fill:none"/>
<circle cx="106.11751099644151" cy="117.97003055850163" r="0.65" stroke="#f1f3f5" stroke-width="0.7 px" style="stroke-width:0.7;stroke-miterlimit:4;stroke-dasharray:none;stroke-linecap:square;fill:none"/>
<circle cx="66.11751099644151" cy="117.97003055850163" r="0.65" stroke="#f1f3f5" stroke-width="0.7 px" style="stroke-width:0.7;stroke-miterlimit:4;stroke-dasharray:none;stroke-linecap:square;fill:none"/>
<circle cx="62.1175109964415" cy="117.97003055850163" r="0.65" stroke="#f1f3f5" stroke-width="0.7 px" style="stroke-width:0.7;stroke-miterlimit:4;stroke-dasharray:none;stroke-linecap:square;fill:none"/>
<circle cx="102.11751099644151" cy="117.97003055850163" r="0.65" stroke="#f1f3f5" stroke-width="0.7 px" style="stroke-width:0.7;stroke-miterlimit:4;stroke-dasharray:none;stroke-linecap:square;fill:none"/>
<circle cx="221.66830481648748" cy="120.96449273898011" r="2.25" stroke="#f1f3f5" stroke-width="0.7 px" style="stroke-width:0.7;stroke-miterlimit:4;stroke-dasharray:none;stroke-linecap:square;fill:none"/>
<circle cx="221.66830481648748" cy="148.4394927389801" r="13.865" stroke="#f1f3f5" stroke-width="0.7 px" style="stroke-width:0.7;stroke-miterlimit:4;stroke-dasharray:none;stroke-linecap:square;fill:none"/>
<path id="Sketch_w0016"  d="M 217.89830481648747 114.48089034524868 A 7.5 7.5 0 0 1 228.369 117.594L 239.9189924747649 140.2594927389801 A 20 20 0 1 1 201.668 148.439L 201.66830481648748 122.55199273898012 L 211.66830481648748 122.55199273898012 L 211.66830481648748 119.3769927389801 L 201.66830481648748 119.3769927389801 L 201.66830481648748 117.3769927389801 L 217.89830481648747 114.48089034524868 " stroke="#f1f3f5" stroke-width="0.7 px" style="stroke-width:0.7;stroke-miterlimit:4;stroke-dasharray:none;stroke-linecap:square;fill:none;fill-opacity:1;fill-rule: evenodd"/>
<path id="Sketch_w0017"  d="M 9.345515933782366 157.608131 A 20 20 0 0 0 48.9198 157.608L 54.13268096569131 121.69813099999999 L 54.13268096569131 114.69813099999999 L 44.13268096569131 114.69813099999999 L 44.13268096569131 121.69813099999999 L 14.132680965691307 121.69813099999999 L 14.132680965691307 114.69813099999999 L 4.132680965691307 114.69813099999999 L 4.132680965691307 121.69813099999999 L 9.345515933782366 157.608131 " stroke="#f1f3f5" stroke-width="0.7 px" style="stroke-width:0.7;stroke-miterlimit:4;stroke-dasharray:none;stroke-linecap:square;fill:none;fill-opacity:1;fill-rule: evenodd"/>
<circle cx="29.132680965691307" cy="154.698131" r="10.9" stroke="#f1f3f5" stroke-width="0.7 px" style="stroke-width:0.7;stroke-miterlimit:4;stroke-dasharray:none;stroke-linecap:square;fill:none"/>
<circle cx="51.13268096569131" cy="117.87313099999999" r="0.65" stroke="#f1f3f5" stroke-width="0.7 px" style="stroke-width:0.7;stroke-miterlimit:4;stroke-dasharray:none;stroke-linecap:square;fill:none"/>
<circle cx="11.132680965691307" cy="117.87313099999999" r="0.65" stroke="#f1f3f5" stroke-width="0.7 px" style="stroke-width:0.7;stroke-miterlimit:4;stroke-dasharray:none;stroke-linecap:square;fill:none"/>
<circle cx="7.132680965691307" cy="117.87313099999999" r="0.65" stroke="#f1f3f5" stroke-width="0.7 px" style="stroke-width:0.7;stroke-miterlimit:4;stroke-dasharray:none;stroke-linecap:square;fill:none"/>
<circle cx="47.13268096569131" cy="117.87313099999999" r="0.65" stroke="#f1f3f5" stroke-width="0.7 px" style="stroke-width:0.7;stroke-miterlimit:4;stroke-dasharray:none;stroke-linecap:square;fill:none"/>
<path id="Sketch_w0023"  d="M 282.75460855735014 142.82088329091567 L 261.4546085573501 142.82088329091567 L 261.4546085573501 137.82088329091567 L 258.4546085573501 137.82088329091567 L 258.4546085573501 127.82088329091569 L 261.4546085573501 127.82088329091569 L 261.4546085573501 117.82088329091569 L 258.4546085573501 117.82088329091569 L 258.4546085573501 107.82088329091569 L 261.4546085573501 107.82088329091569 L 261.4546085573501 97.82088329091569 L 258.4546085573501 97.82088329091569 L 258.4546085573501 87.82088329091569 L 285.75460855735014 87.82088329091569 L 285.75460855735014 97.82088329091569 L 282.75460855735014 97.82088329091569 L 282.75460855735014 107.82088329091569 L 285.75460855735014 107.82088329091569 L 285.75460855735014 117.82088329091569 L 282.75460855735014 117.82088329091569 L 282.75460855735014 127.82088329091569 L 285.75460855735014 127.82088329091569 L 285.75460855735014 137.82088329091567 L 282.75460855735014 137.82088329091567 L 282.75460855735014 142.82088329091567 " stroke="#f1f3f5" stroke-width="0.7 px" style="stroke-width:0.7;stroke-miterlimit:4;stroke-dasharray:none;stroke-linecap:square;fill:none;fill-opacity:1;fill-rule: evenodd"/>
<path id="Sketch_w0024"  d="M 325.710785 59.892275 L 304.410785 59.892275 L 304.410785 54.892275 L 301.410785 54.892275 L 301.410785 44.892275 L 304.410785 44.892275 L 304.410785 34.892275 L 301.410785 34.892275 L 301.410785 24.892274999999998 L 304.410785 24.892274999999998 L 304.410785 14.892274999999998 L 301.410785 14.892274999999998 L 301.410785 4.892274999999998 L 328.710785 4.892274999999998 L 328.710785 14.892274999999998 L 325.710785 14.892274999999998 L 325.710785 24.892274999999998 L 328.710785 24.892274999999998 L 328.710785 34.892275 L 325.710785 34.892275 L 325.710785 44.892275 L 328.710785 44.892275 L 328.710785 54.892275 L 325.710785 54.892275 L 325.710785 59.892275 " stroke="#f1f3f5" stroke-width="0.7 px" style="stroke-width:0.7;stroke-miterlimit:4;stroke-dasharray:none;stroke-linecap:square;fill:none;fill-opacity:1;fill-rule: evenodd"/>
<path id="Sketch_w0025"  d="M 311.83592551222125 85.46695399991698 L 311.83592551222125 73.46695399991698 L 306.83592551222125 73.46695399991698 L 294.88592551222126 85.46695399991698 L 294.88592551222126 145.46695399991697 L 334.88592551222126 145.46695399991697 L 334.88592551222126 85.46695399991698 L 322.9359255122212 73.46695399991698 L 317.9359255122212 73.46695399991698 L 317.9359255122212 85.46695399991698 L 311.83592551222125 85.46695399991698 " stroke="#f1f3f5" stroke-width="0.7 px" style="stroke-width:0.7;stroke-miterlimit:4;stroke-dasharray:none;stroke-linecap:square;fill:none;fill-opacity:1;fill-rule: evenodd"/>
<path id="Sketch_w0026"  d="M 301.4359255122212 120.46695399991698 L 301.4359255122212 110.46695399991698 L 304.23592551222123 110.46695399991698 L 304.23592551222123 120.46695399991698 L 301.4359255122212 120.46695399991698 " stroke="#f1f3f5" stroke-width="0.7 px" style="stroke-width:0.7;stroke-miterlimit:4;stroke-dasharray:none;stroke-linecap:square;fill:none;fill-opacity:1;fill-rule: evenodd"/>
<path id="Sketch_w0027"  d="M 301.4359255122212 100.46695399991698 L 301.4359255122212 90.46695399991698 L 304.23592551222123 90.46695399991698 L 304.23592551222123 100.46695399991698 L 301.4359255122212 100.46695399991698 " stroke="#f1f3f5" stroke-width="0.7 px" style="stroke-width:0.7;stroke-miterlimit:4;stroke-dasharray:none;stroke-linecap:square;fill:none;fill-opacity:1;fill-rule: evenodd"/>
<path id="Sketch_w0028"  d="M 301.4359255122212 140.46695399991697 L 301.4359255122212 130.46695399991697 L 304.23592551222123 130.46695399991697 L 304.23592551222123 140.46695399991697 L 301.4359255122212 140.46695399991697 " stroke="#f1f3f5" stroke-width="0.7 px" style="stroke-width:0.7;stroke-miterlimit:4;stroke-dasharray:none;stroke-linecap:square;fill:none;fill-opacity:1;fill-rule: evenodd"/>
<path id="Sketch_w0029"  d="M 325.53592551222124 120.46695399991698 L 325.53592551222124 110.46695399991698 L 328.33592551222125 110.46695399991698 L 328.33592551222125 120.46695399991698 L 325.53592551222124 120.46695399991698 " stroke="#f1f3f5" stroke-width="0.7 px" style="stroke-width:0.7;stroke-miterlimit:4;stroke-dasharray:none;stroke-linecap:square;fill:none;fill-opacity:1;fill-rule: evenodd"/>
<path id="Sketch_w0030"  d="M 325.53592551222124 100.46695399991698 L 325.53592551222124 90.46695399991698 L 328.33592551222125 90.46695399991698 L 328.33592551222125 100.46695399991698 L 325.53592551222124 100.46695399991698 " stroke="#f1f3f5" stroke-width="0.7 px" style="stroke-width:0.7;stroke-miterlimit:4;stroke-dasharray:none;stroke-linecap:square;fill:none;fill-opacity:1;fill-rule: evenodd"/>
<path id="Sketch_w0031"  d="M 325.53592551222124 140.46695399991697 L 325.53592551222124 130.46695399991697 L 328.33592551222125 130.46695399991697 L 328.33592551222125 140.46695399991697 L 325.53592551222124 140.46695399991697 " stroke="#f1f3f5" stroke-width="0.7 px" style="stroke-width:0.7;stroke-miterlimit:4;stroke-dasharray:none;stroke-linecap:square;fill:none;fill-opacity:1;fill-rule: evenodd"/>
<path id="Sketch_w0032"  d="M 272.2161135272812 14.063213999880796 L 272.2161135272812 2.063213999880796 L 267.2161135272812 2.063213999880796 L 255.2661135272812 14.063213999880794 L 255.2661135272812 74.06321399988079 L 295.2661135272812 74.06321399988079 L 295.2661135272812 14.063213999880796 L 283.3161135272812 2.063213999880796 L 278.3161135272812 2.063213999880796 L 278.3161135272812 14.063213999880796 L 272.2161135272812 14.063213999880796 " stroke="#f1f3f5" stroke-width="0.7 px" style="stroke-width:0.7;stroke-miterlimit:4;stroke-dasharray:none;stroke-linecap:square;fill:none;fill-opacity:1;fill-rule: evenodd"/>
<path id="Sketch_w0033"  d="M 261.8161135272812 49.063213999880794 L 261.8161135272812 39.063213999880794 L 264.6161135272812 39.063213999880794 L 264.6161135272812 49.063213999880794 L 261.8161135272812 49.063213999880794 " stroke="#f1f3f5" stroke-width="0.7 px" style="stroke-width:0.7;stroke-miterlimit:4;stroke-dasharray:none;stroke-linecap:square;fill:none;fill-opacity:1;fill-rule: evenodd"/>
<path id="Sketch_w0034"  d="M 261.8161135272812 29.063213999880798 L 261.8161135272812 19.063213999880798 L 264.6161135272812 19.063213999880798 L 264.6161135272812 29.063213999880798 L 261.8161135272812 29.063213999880798 " stroke="#f1f3f5" stroke-width="0.7 px" style="stroke-width:0.7;stroke-miterlimit:4;stroke-dasharray:none;stroke-linecap:square;fill:none;fill-opacity:1;fill-rule: evenodd"/>
<path id="Sketch_w0035"  d="M 261.8161135272812 69.0632139998808 L 261.8161135272812 59.063213999880794 L 264.6161135272812 59.063213999880794 L 264.6161135272812 69.0632139998808 L 261.8161135272812 69.0632139998808 " stroke="#f1f3f5" stroke-width="0.7 px" style="stroke-width:0.7;stroke-miterlimit:4;stroke-dasharray:none;stroke-linecap:square;fill:none;fill-opacity:1;fill-rule: evenodd"/>
<path id="Sketch_w0036"  d="M 285.9161135272812 49.063213999880794 L 285.9161135272812 39.063213999880794 L 288.7161135272812 39.063213999880794 L 288.7161135272812 49.063213999880794 L 285.9161135272812 49.063213999880794 " stroke="#f1f3f5" stroke-width="0.7 px" style="stroke-width:0.7;stroke-miterlimit:4;stroke-dasharray:none;stroke-linecap:square;fill:none;fill-opacity:1;fill-rule: evenodd"/>
<path id="Sketch_w0037"  d="M 285.9161135272812 29.063213999880798 L 285.9161135272812 19.063213999880798 L 288.7161135272812 19.063213999880798 L 288.7161135272812 29.063213999880798 L 285.9161135272812 29.063213999880798 " stroke="#f1f3f5" stroke-width="0.7 px" style="stroke-width:0.7;stroke-miterlimit:4;stroke-dasharray:none;stroke-linecap:square;fill:none;fill-opacity:1;fill-rule: evenodd"/>
<path id="Sketch_w0038"  d="M 285.9161135272812 69.0632139998808 L 285.9161135272812 59.063213999880794 L 288.7161135272812 59.063213999880794 L 288.7161135272812 69.0632139998808 L 285.9161135272812 69.0632139998808 " stroke="#f1f3f5" stroke-width="0.7 px" style="stroke-width:0.7;stroke-miterlimit:4;stroke-dasharray:none;stroke-linecap:square;fill:none;fill-opacity:1;fill-rule: evenodd"/>
<circle cx="12.285988549692627" cy="79.98252853867989" r="2.25" stroke="#f1f3f5" stroke-width="0.7 px" style="stroke-width:0.7;stroke-miterlimit:4;stroke-dasharray:none;stroke-linecap:square;fill:none"/>
<path id="Sketch_w0040"  d="M 12.285988549692627 89.98252853867989 A 10 10 0 0 1 12.286 69.9825L 198.28598854969263 69.98252853867989 A 10 10 0 0 1 198.286 89.9825L 12.285988549692627 89.98252853867989 " stroke="#f1f3f5" stroke-width="0.7 px" style="stroke-width:0.7;stroke-miterlimit:4;stroke-dasharray:none;stroke-linecap:square;fill:none;fill-opacity:1;fill-rule: evenodd"/>
<circle cx="198.28598854969263" cy="79.98252853867989" r="2.25" stroke="#f1f3f5" stroke-width="0.7 px" style="stroke-width:0.7;stroke-miterlimit:4;stroke-dasharray:none;stroke-linecap:square;fill:none"/>
<path id="Sketch_w0042"  d="M 15.285988549692627 81.38252853867988 L 15.285988549692627 78.58252853867988 L 25.285988549692625 78.58252853867988 L 25.285988549692625 81.38252853867988 L 15.285988549692627 81.38252853867988 " stroke="#f1f3f5" stroke-width="0.7 px" style="stroke-width:0.7;stroke-miterlimit:4;stroke-dasharray:none;stroke-linecap:square;fill:none;fill-opacity:1;fill-rule: evenodd"/>
<path id="Sketch_w0043"  d="M 100.28598854969262 81.38252853867988 L 100.28598854969262 78.58252853867988 L 110.28598854969262 78.58252853867988 L 110.28598854969262 81.38252853867988 L 100.28598854969262 81.38252853867988 " stroke="#f1f3f5" stroke-width="0.7 px" style="stroke-width:0.7;stroke-miterlimit:4;stroke-dasharray:none;stroke-linecap:square;fill:none;fill-opacity:1;fill-rule: evenodd"/>
<path id="Sketch_w0044"  d="M 185.28598854969263 81.38252853867988 L 185.28598854969263 78.58252853867988 L 195.28598854969263 78.58252853867988 L 195.28598854969263 81.38252853867988 L 185.28598854969263 81.38252853867988 " stroke="#f1f3f5" stroke-width="0.7 px" style="stroke-width:0.7;stroke-miterlimit:4;stroke-dasharray:none;stroke-linecap:square;fill:none;fill-opacity:1;fill-rule: evenodd"/>
<path id="Sketch_w0045"  d="M 185.1521391105901 6.279786662324738 L 188.1521391105901 9.279786662324739 L 196.4821391105901 30.64978666232474 L 211.1521391105901 25.77978666232474 L 211.1521391105901 24.77978666232474 L 201.1521391105901 24.77978666232474 L 201.1521391105901 23.27978666232474 L 211.1521391105901 23.27978666232474 L 211.1521391105901 22.27978666232474 L 201.1521391105901 9.279786662324739 L 201.1521391105901 6.279786662324738 L 198.1521391105901 6.279786662324738 L 198.1521391105901 3.279786662324738 L 188.1521391105901 3.279786662324738 L 188.1521391105901 6.279786662324738 L 185.1521391105901 6.279786662324738 " stroke="#f1f3f5" stroke-width="0.7 px" style="stroke-width:0.7;stroke-miterlimit:4;stroke-dasharray:none;stroke-linecap:square;fill:none;fill-opacity:1;fill-rule: evenodd"/>
<path id="Sketch_w0046"  d="M 169.293067622341 27.12239065230861 L 169.293067622341 24.32239065230861 L 179.293067622341 24.32239065230861 L 179.293067622341 27.12239065230861 L 169.293067622341 27.12239065230861 " stroke="#f1f3f5" stroke-width="0.7 px" style="stroke-width:0.7;stroke-miterlimit:4;stroke-dasharray:none;stroke-linecap:square;fill:none;fill-opacity:1;fill-rule: evenodd"/>
<circle cx="12.238709326452788" cy="101.9488752142301" r="2.25" stroke="#f1f3f5" stroke-width="0.7 px" style="stroke-width:0.7;stroke-miterlimit:4;stroke-dasharray:none;stroke-linecap:square;fill:none"/>
<path id="Sketch_w0048"  d="M 12.238709326452788 111.9488752142301 A 10 10 0 0 1 12.2387 91.9489L 198.2387093264528 91.9488752142301 A 10 10 0 1 1 198.239 111.949L 12.238709326452788 111.9488752142301 " stroke="#f1f3f5" stroke-width="0.7 px" style="stroke-width:0.7;stroke-miterlimit:4;stroke-dasharray:none;stroke-linecap:square;fill:none;fill-opacity:1;fill-rule: evenodd"/>
<circle cx="198.2387093264528" cy="101.9488752142301" r="2.25" stroke="#f1f3f5" stroke-width="0.7 px" style="stroke-width:0.7;stroke-miterlimit:4;stroke-dasharray:none;stroke-linecap:square;fill:none"/>
<path id="Sketch_w0050"  d="M 15.238709326452788 103.3488752142301 L 15.238709326452788 100.54887521423011 L 25.23870932645279 100.54887521423011 L 25.23870932645279 103.3488752142301 L 15.238709326452788 103.3488752142301 " stroke="#f1f3f5" stroke-width="0.7 px" style="stroke-width:0.7;stroke-miterlimit:4;stroke-dasharray:none;stroke-linecap:square;fill:none;fill-opacity:1;fill-rule: evenodd"/>
<path id="Sketch_w0051"  d="M 100.23870932645279 103.3488752142301 L 100.23870932645279 100.54887521423011 L 110.23870932645279 100.54887521423011 L 110.23870932645279 103.3488752142301 L 100.23870932645279 103.3488752142301 " stroke="#f1f3f5" stroke-width="0.7 px" style="stroke-width:0.7;stroke-miterlimit:4;stroke-dasharray:none;stroke-linecap:square;fill:none;fill-opacity:1;fill-rule: evenodd"/>
<path id="Sketch_w0052"  d="M 160.2387093264528 103.3488752142301 L 160.2387093264528 100.54887521423011 L 170.2387093264528 100.54887521423011 L 170.2387093264528 103.3488752142301 L 160.2387093264528 103.3488752142301 " stroke="#f1f3f5" stroke-width="0.7 px" style="stroke-width:0.7;stroke-miterlimit:4;stroke-dasharray:none;stroke-linecap:square;fill:none;fill-opacity:1;fill-rule: evenodd"/>
<circle cx="116.61289236226813" cy="127.67238302431682" r="2.2" stroke="#f1f3f5" stroke-width="0.7 px" style="stroke-width:0.7;stroke-miterlimit:4;stroke-dasharray:none;stroke-linecap:square;fill:none"/>
<path id="Sketch_w0054"  d="M 116.61289236226813 113.67238302431682 A 14 14 0 0 1 116.613 141.672L 116.61289236226813 133.67238302431682 A 6 6 0 1 1 116.613 121.672L 116.61289236226813 113.67238302431682 " stroke="#f1f3f5" stroke-width="0.7 px" style="stroke-width:0.7;stroke-miterlimit:4;stroke-dasharray:none;stroke-linecap:square;fill:none;fill-opacity:1;fill-rule: evenodd"/>
<circle cx="115.81797800000001" cy="158.2143250000006" r="2.2" stroke="#f1f3f5" stroke-width="0.7 px" style="stroke-width:0.7;stroke-miterlimit:4;stroke-dasharray:none;stroke-linecap:square;fill:none"/>
<path id="Sketch_w0056"  d="M 115.81797800000001 144.2143250000006 A 14 14 0 0 1 115.818 172.214L 115.81797800000001 164.2143250000006 A 6 6 0 1 1 115.818 152.214L 115.81797800000001 144.2143250000006 " stroke="#f1f3f5" stroke-width="0.7 px" style="stroke-width:0.7;stroke-miterlimit:4;stroke-dasharray:none;stroke-linecap:square;fill:none;fill-opacity:1;fill-rule: evenodd"/>
<title>b'Sketch'</title>
</g>
</svg>