<?xml version="1.0"?>
<!DOCTYPE svg PUBLIC "-//W3C//DTD SVG 1.1//EN" "http://www.w3.org/Graphics/SVG/1.1/DTD/svg11.dtd">
<svg width="279.7015684174816mm" height="336.0010114787741mm" viewBox="0 0 279.7015684174816 336.0010114787741" xmlns="http://www.w3.org/2000/svg" version="1.1">
<g id="Sketch" transform="translate(-2.455599,334.764088) scale(1,-1)">
<path id="Sketch_w0000"  d="M 25.197770972519344 66.38995070515703 L 25.197770972519344 166.38995070515702 L 67.89777097251934 166.38995070515702 L 67.89777097251934 66.38995070515703 L 87.89777097251935 34.389950705157034 A 43.056 43.056 0 0 0 5.19777 34.39L 25.197770972519344 66.38995070515703 " stroke="#f1f3f5" stroke-width="0.7 px" style="stroke-width:0.7;stroke-miterlimit:4;stroke-dasharray:none;stroke-linecap:square;fill:none;fill-opacity:1;fill-rule: evenodd"/>
<path id="Sketch_w0001"  d="M 60.047770972519345 161.38995070515702 L 60.047770972519345 156.38995070515702 L 62.897770972519346 156.38995070515702 L 62.897770972519346 161.38995070515702 L 60.047770972519345 161.38995070515702 " stroke="#f1f3f5" stroke-width="0.7 px" style="stroke-width:0.7;stroke-miterlimit:4;stroke-dasharray:none;stroke-linecap:square;fill:none;fill-opacity:1;fill-rule: evenodd"/>
<path id="Sketch_w0002"  d="M 30.197770972519344 161.38995070515702 L 30.197770972519344 156.38995070515702 L 33.047770972519345 156.38995070515702 L 33.047770972519345 161.38995070515702 L 30.197770972519344 161.38995070515702 " stroke="#f1f3f5" stroke-width="0.7 px" style="stroke-width:0.7;stroke-miterlimit:4;stroke-dasharray:none;stroke-linecap:square;fill:none;fill-opacity:1;fill-rule: evenodd"/>
<path id="Sketch_w0003"  d="M 60.047770972519345 76.38995070515703 L 60.047770972519345 71.38995070515703 L 62.897770972519346 71.38995070515703 L 62.897770972519346 76.38995070515703 L 60.047770972519345 76.38995070515703 " stroke="#f1f3f5" stroke-width="0.7 px" style="stroke-width:0.7;stroke-miterlimit:4;stroke-dasharray:none;stroke-linecap:square;fill:none;fill-opacity:1;fill-rule: evenodd"/>
<path id="Sketch_w0004"  d="M 30.197770972519344 76.38995070515703 L 30.197770972519344 71.38995070515703 L 33.047770972519345 71.38995070515703 L 33.047770972519345 76.38995070515703 L 30.197770972519344 76.38995070515703 " stroke="#f1f3f5" stroke-width="0.7 px" style="stroke-width:0.7;stroke-miterlimit:4;stroke-dasharray:none;stroke-linecap:square;fill:none;fill-opacity:1;fill-rule: evenodd"/>
<path id="Sketch_w0005"  d="M 60.047770972519345 118.88995070515703 L 60.047770972519345 113.88995070515703 L 62.897770972519346 113.88995070515703 L 62.897770972519346 118.88995070515703 L 60.047770972519345 118.88995070515703 " stroke="#f1f3f5" stroke-width="0.7 px" style="stroke-width:0.7;stroke-miterlimit:4;stroke-dasharray:none;stroke-linecap:square;fill:none;fill-opacity:1;fill-rule: evenodd"/>
<path id="Sketch_w0006"  d="M 30.197770972519344 118.88995070515703 L 30.197770972519344 113.88995070515703 L 33.047770972519345 113.88995070515703 L 33.047770972519345 118.88995070515703 L 30.197770972519344 118.88995070515703 " stroke="#f1f3f5" stroke-width="0.7 px" style="stroke-width:0.7;stroke-miterlimit:4;stroke-dasharray:none;stroke-linecap:square;fill:none;fill-opacity:1;fill-rule: evenodd"/>
<path id="Sketch_w0007"  d="M 73.96015842687476 41.87878040085952 L 76.61015312689067 37.63878888083408 L 79.02694829330515 39.14928585984314 L 76.37695359328926 43.38927737986858 L 73.96015842687476 41.87878040085952 " stroke="#f1f3f5" stroke-width="0.7 px" style="stroke-width:0.7;stroke-miterlimit:4;stroke-dasharray:none;stroke-linecap:square;fill:none;fill-opacity:1;fill-rule: evenodd"/>
<path id="Sketch_w0008"  d="M 26.788568211809856 59.50124515596524 L 24.138573511793957 55.2612536359398 L 26.55536867820846 53.75075665693074 L 29.20536337822436 57.99074817695618 L 26.788568211809856 59.50124515596524 " stroke="#f1f3f5" stroke-width="0.7 px" style="stroke-width:0.7;stroke-miterlimit:4;stroke-dasharray:none;stroke-linecap:square;fill:none;fill-opacity:1;fill-rule: evenodd"/>
<path id="Sketch_w0009"  d="M 16.71858835174944 43.389277379868574 L 14.06859365173354 39.14928585984313 L 16.48538881814804 37.63878888083407 L 19.13538351816394 41.878780400859505 L 16.71858835174944 43.389277379868574 " stroke="#f1f3f5" stroke-width="0.7 px" style="stroke-width:0.7;stroke-miterlimit:4;stroke-dasharray:none;stroke-linecap:square;fill:none;fill-opacity:1;fill-rule: evenodd"/>
<path id="Sketch_w0010"  d="M 63.89017856681433 57.99074817695618 L 66.54017326683022 53.75075665693074 L 68.95696843324473 55.2612536359398 L 66.30697373322883 59.50124515596524 L 63.89017856681433 57.99074817695618 " stroke="#f1f3f5" stroke-width="0.7 px" style="stroke-width:0.7;stroke-miterlimit:4;stroke-dasharray:none;stroke-linecap:square;fill:none;fill-opacity:1;fill-rule: evenodd"/>
<path id="Sketch_w0011"  d="M 112.68417320564741 160.5736196077782 L 112.68417320564741 155.5736196077782 L 109.68417320564741 155.5736196077782 L 109.68417320564741 150.5736196077782 L 112.68417320564741 150.5736196077782 L 112.68417320564741 113.07361960777818 L 109.68417320564741 113.07361960777818 L 109.68417320564741 108.07361960777818 L 112.68417320564741 108.07361960777818 L 112.68417320564741 70.57361960777818 L 109.68417320564741 70.57361960777818 L 109.68417320564741 65.57361960777818 L 112.68417320564741 65.57361960777818 L 112.68417320564741 60.57361960777819 L 127.68417320564741 60.57361960777819 L 127.68417320564741 160.5736196077782 L 112.68417320564741 160.5736196077782 " stroke="#f1f3f5" stroke-width="0.7 px" style="stroke-width:0.7;stroke-miterlimit:4;stroke-dasharray:none;stroke-linecap:square;fill:none;fill-opacity:1;fill-rule: evenodd"/>
<path id="Sketch_w0012"  d="M 117.69046000000003 32.96535900000001 L 117.69046000000003 27.965359000000003 L 114.69046000000003 27.965359000000003 L 114.69046000000003 22.965359000000003 L 117.69046000000003 22.965359000000003 L 117.69046000000003 8.965359000000005 L 114.69046000000003 8.965359000000005 L 114.69046000000003 3.9653590000000047 L 132.69046000000003 3.9653590000000047 L 132.69046000000003 32.96535900000001 L 117.69046000000003 32.96535900000001 " stroke="#f1f3f5" stroke-width="0.7 px" style="stroke-width:0.7;stroke-miterlimit:4;stroke-dasharray:none;stroke-linecap:square;fill:none;fill-opacity:1;fill-rule: evenodd"/>
<path id="Sketch_w0013"  d="M 138.57589674624984 2.495964502991857 L 168.57589674624984 2.495964502991857 L 168.57589674624984 7.495964502991857 L 163.57589674624984 7.495964502991857 L 163.57589674624984 10.345964502991857 L 168.57589674624984 10.345964502991857 L 168.57589674624984 28.345964502991855 L 163.57589674624984 28.34596450299186 L 163.57589674624984 31.195964502991856 L 168.57589674624984 31.195964502991856 L 168.57589674624984 34.195964502991856 L 163.45182650149957 34.70837152746687 L 163.7503376585626 37.69348309809715 L 158.77515170751263 38.191001693202075 L 158.47664055044962 35.205890122571795 L 148.5262686483497 36.20092731278182 L 148.82477980541273 39.18603888341195 L 143.84959385436278 39.68355747851684 L 143.5510826972998 36.69844590788687 L 138.57589674624984 37.195964502991856 L 138.57589674624984 31.195964502991856 L 143.57589674624984 31.195964502991856 L 143.57589674624984 28.34596450299186 L 138.57589674624984 28.34596450299186 L 138.57589674624984 10.345964502991858 L 143.57589674624984 10.345964502991858 L 143.57589674624984 7.495964502991857 L 138.57589674624984 7.495964502991857 L 138.57589674624984 2.495964502991857 " stroke="#f1f3f5" stroke-width="0.7 px" style="stroke-width:0.7;stroke-miterlimit:4;stroke-dasharray:none;stroke-linecap:square;fill:none;fill-opacity:1;fill-rule: evenodd"/>
<path id="Sketch_w0014"  d="M 137.084091 84.92627799999997 L 137.084091 48.92627799999997 L 142.084091 48.92627799999997 L 142.084091 51.92627799999997 L 162.084091 51.92627799999997 L 162.084091 48.92627799999997 L 167.084091 48.92627799999997 L 167.084091 84.92627799999997 L 162.084091 84.92627799999997 L 162.084091 81.92627799999997 L 142.084091 81.92627799999997 L 142.084091 84.92627799999997 L 137.084091 84.92627799999997 " stroke="#f1f3f5" stroke-width="0.7 px" style="stroke-width:0.7;stroke-miterlimit:4;stroke-dasharray:none;stroke-linecap:square;fill:none;fill-opacity:1;fill-rule: evenodd"/>
<circle cx="152.084091" cy="66.92627799999997" r="10.9" stroke="#f1f3f5" stroke-width="0.7 px" style="stroke-width:0.7;stroke-miterlimit:4;stroke-dasharray:none;stroke-linecap:square;fill:none"/>
<path id="Sketch_w0016"  d="M 61.69777097251935 56.38995070515703 L 61.69777097251935 51.38995070515703 L 64.54777097251934 51.38995070515703 L 64.54777097251934 56.38995070515703 L 61.69777097251935 56.38995070515703 " stroke="#f1f3f5" stroke-width="0.7 px" style="stroke-width:0.7;stroke-miterlimit:4;stroke-dasharray:none;stroke-linecap:square;fill:none;fill-opacity:1;fill-rule: evenodd"/>
<path id="Sketch_w0017"  d="M 61.69777097251935 41.38995070515703 L 61.69777097251935 36.38995070515703 L 64.54777097251934 36.38995070515703 L 64.54777097251934 41.38995070515703 L 61.69777097251935 41.38995070515703 " stroke="#f1f3f5" stroke-width="0.7 px" style="stroke-width:0.7;stroke-miterlimit:4;stroke-dasharray:none;stroke-linecap:square;fill:none;fill-opacity:1;fill-rule: evenodd"/>
<path id="Sketch_w0018"  d="M 28.547770972519345 41.38995070515703 L 28.547770972519345 36.38995070515703 L 31.397770972519346 36.38995070515703 L 31.397770972519346 41.38995070515703 L 28.547770972519345 41.38995070515703 " stroke="#f1f3f5" stroke-width="0.7 px" style="stroke-width:0.7;stroke-miterlimit:4;stroke-dasharray:none;stroke-linecap:square;fill:none;fill-opacity:1;fill-rule: evenodd"/>
<path id="Sketch_w0019"  d="M 28.547770972519345 56.38995070515703 L 28.547770972519345 51.38995070515703 L 31.397770972519346 51.38995070515703 L 31.397770972519346 56.38995070515703 L 28.547770972519345 56.38995070515703 " stroke="#f1f3f5" stroke-width="0.7 px" style="stroke-width:0.7;stroke-miterlimit:4;stroke-dasharray:none;stroke-linecap:square;fill:none;fill-opacity:1;fill-rule: evenodd"/>
<path id="Sketch_w0020"  d="M 85.36774399999999 164.848442 L 85.36774399999999 159.848442 L 82.36774399999999 159.848442 L 82.36774399999999 154.848442 L 85.36774399999999 154.848442 L 85.36774399999999 117.348442 L 82.36774399999999 117.348442 L 82.36774399999999 112.348442 L 85.36774399999999 112.348442 L 85.36774399999999 74.848442 L 82.36774399999999 74.848442 L 82.36774399999999 69.848442 L 85.36774399999999 69.848442 L 85.36774399999999 64.848442 L 100.36774399999999 64.848442 L 100.36774399999999 164.848442 L 85.36774399999999 164.848442 " stroke="#f1f3f5" stroke-width="0.7 px" style="stroke-width:0.7;stroke-miterlimit:4;stroke-dasharray:none;stroke-linecap:square;fill:none;fill-opacity:1;fill-rule: evenodd"/>
<path id="Sketch_w0021"  d="M 95.31320200000002 32.277544 L 95.31320200000002 27.277544000000002 L 92.31320200000002 27.277544000000002 L 92.31320200000002 22.277544000000002 L 95.31320200000002 22.277544000000002 L 95.31320200000002 8.277544000000002 L 92.31320200000002 8.277544000000002 L 92.31320200000002 3.2775440000000025 L 110.31320200000002 3.2775440000000025 L 110.31320200000002 32.277544 L 95.31320200000002 32.277544 " stroke="#f1f3f5" stroke-width="0.7 px" style="stroke-width:0.7;stroke-miterlimit:4;stroke-dasharray:none;stroke-linecap:square;fill:none;fill-opacity:1;fill-rule: evenodd"/>
<path id="Sketch_w0022"  d="M 135.09498619580023 88.96573238042012 L 165.09498619580023 88.96573238042012 L 165.09498619580023 93.96573238042012 L 160.09498619580023 93.96573238042012 L 160.09498619580023 96.81573238042012 L 165.09498619580023 96.81573238042012 L 165.09498619580023 114.81573238042012 L 160.09498619580023 114.81573238042012 L 160.09498619580023 117.66573238042011 L 165.09498619580023 117.66573238042011 L 165.09498619580023 120.66573238042011 L 159.97091595104996 121.17813940489508 L 160.26942710811315 124.16325097552613 L 155.2942411570632 124.66076957063089 L 154.99572999999998 121.67565799999984 L 145.0453580979001 122.6706951902099 L 145.34386925496327 125.65580676084039 L 140.36868330391326 126.15332535594492 L 140.07017214685015 123.16821378531496 L 135.09498619580023 123.66573238042011 L 135.09498619580023 117.66573238042011 L 140.09498619580023 117.66573238042011 L 140.09498619580023 114.81573238042012 L 135.09498619580023 114.81573238042012 L 135.09498619580023 96.81573238042012 L 140.09498619580023 96.81573238042012 L 140.09498619580023 93.96573238042012 L 135.09498619580023 93.96573238042012 L 135.09498619580023 88.96573238042012 " stroke="#f1f3f5" stroke-width="0.7 px" style="stroke-width:0.7;stroke-miterlimit:4;stroke-dasharray:none;stroke-linecap:square;fill:none;fill-opacity:1;fill-rule: evenodd"/>
<path id="Sketch_w0023"  d="M 135.59227 164.74801599999998 L 135.59227 128.74801599999998 L 140.59227 128.74801599999998 L 140.59227 131.74801599999998 L 160.59227 131.74801599999998 L 160.59227 128.74801599999998 L 165.59227 128.74801599999998 L 165.59227 164.74801599999998 L 160.59227 164.74801599999998 L 160.59227 161.74801599999998 L 140.59227 161.74801599999998 L 140.59227 164.74801599999998 L 135.59227 164.74801599999998 " stroke="#f1f3f5" stroke-width="0.7 px" style="stroke-width:0.7;stroke-miterlimit:4;stroke-dasharray:none;stroke-linecap:square;fill:none;fill-opacity:1;fill-rule: evenodd"/>
<circle cx="150.59227" cy="146.74801599999998" r="10.9" stroke="#f1f3f5" stroke-width="0.7 px" style="stroke-width:0.7;stroke-miterlimit:4;stroke-dasharray:none;stroke-linecap:square;fill:none"/>
<path id="Sketch_w0025"  d="M 163.6832661773178 261.625037265933 L 169.1304403625601 246.1741875471856 L 166.1304403625601 246.1741875471856 " stroke="#f1f3f5" stroke-width="0.7 px" style="stroke-width:0.7;stroke-miterlimit:4;stroke-dasharray:none;stroke-linecap:square;fill:none;fill-opacity:1;fill-rule: evenodd"/>
<path id="Sketch_w0026"  d="M 166.13044 246.174188 L 166.536436 229.796287 L 163.683266 230.723338 L 159.008341 215.021569 L 156.58129 216.784925 L 147.283059 203.296287 L 145.519703 205.723338 L 132.508341 195.768192 L 131.58129 198.621362 L 116.13044 193.174188 L 116.13044 196.174188 L 99.75254 195.768192 L 100.679591 198.621362 L 84.977822 203.296287 L 86.741178 205.723338 L 73.25254 215.021569 L 75.679591 216.784925 L 65.724445 229.796287 L 68.577615 230.723338 L 63.13044 246.174188 L 66.13044 246.174188 L 65.724445 262.552088 L 68.577615 261.625037 L 73.25254 277.326806 L 75.679591 275.56345 L 84.977822 289.052088 L 86.741178 286.625037 L 99.75254 296.580183 L 100.679591 293.727013 L 116.13044 299.174188 L 116.13044 296.174188 L 132.508341 296.580183 L 131.58129 293.727013 L 147.283059 289.052088 L 145.519703 286.625037 L 159.008341 277.326806 L 156.58129 275.56345 L 166.536436 262.552088 L 163.683266 261.625037 " stroke="#f1f3f5" stroke-width="0.7 px" style="stroke-width:0.7;stroke-miterlimit:4;stroke-dasharray:none;stroke-linecap:square;fill:none;fill-opacity:1;fill-rule: evenodd"/>
<circle cx="116.13" cy="246.17" r="10.9" stroke="#f1f3f5" stroke-width="0.7 px" style="stroke-width:0.7;stroke-miterlimit:4;stroke-dasharray:none;stroke-linecap:square;fill:none"/>
<circle cx="150.13742299999998" cy="315.021916" r="10.9" stroke="#f1f3f5" stroke-width="0.7 px" style="stroke-width:0.7;stroke-miterlimit:4;stroke-dasharray:none;stroke-linecap:square;fill:none"/>
<path id="Sketch_w0029"  d="M 65.13742299999998 316.446916 L 65.13742299999998 313.59691599999996 L 75.13742299999998 313.59691599999996 L 75.13742299999998 316.446916 L 65.13742299999998 316.446916 " stroke="#f1f3f5" stroke-width="0.7 px" style="stroke-width:0.7;stroke-miterlimit:4;stroke-dasharray:none;stroke-linecap:square;fill:none;fill-opacity:1;fill-rule: evenodd"/>
<circle cx="219.13742299999998" cy="315.021916" r="2.275" stroke="#f1f3f5" stroke-width="0.7 px" style="stroke-width:0.7;stroke-miterlimit:4;stroke-dasharray:none;stroke-linecap:square;fill:none"/>
<path id="Sketch_w0031"  d="M 139.13742299999998 332.021916 L 60.137422999999984 321.446916 L 60.137422999999984 308.59691599999996 L 139.13742299999998 298.021916 L 161.13742299999998 298.021916 L 220.13742299999998 307.5888816263407 A 7.5 7.5 0 0 1 220.137 322.455L 161.13742299999998 332.021916 L 139.13742299999998 332.021916 " stroke="#f1f3f5" stroke-width="0.7 px" style="stroke-width:0.7;stroke-miterlimit:4;stroke-dasharray:none;stroke-linecap:square;fill:none;fill-opacity:1;fill-rule: evenodd"/>
<circle cx="250.126556" cy="243.627502" r="3.9" stroke="#f1f3f5" stroke-width="0.7 px" style="stroke-width:0.7;stroke-miterlimit:4;stroke-dasharray:none;stroke-linecap:square;fill:none"/>
<path id="Sketch_w0033"  d="M 260.126556 243.627502 A 10 10 0 0 1 250.127 253.628L 181.126556 253.627502 A 10 10 0 0 1 171.127 243.628L 171.126556 188.627502 L 181.126556 188.627502 L 181.126556 185.627502 L 191.126556 185.627502 L 191.126556 188.627502 L 240.126556 188.627502 L 240.126556 185.627502 L 250.126556 185.627502 L 250.126556 188.627502 L 260.126556 188.627502 L 260.126556 243.627502 " stroke="#f1f3f5" stroke-width="0.7 px" style="stroke-width:0.7;stroke-miterlimit:4;stroke-dasharray:none;stroke-linecap:square;fill:none;fill-opacity:1;fill-rule: evenodd"/>
<circle cx="181.126556" cy="243.627502" r="2.275" stroke="#f1f3f5" stroke-width="0.7 px" style="stroke-width:0.7;stroke-miterlimit:4;stroke-dasharray:none;stroke-linecap:square;fill:none"/>
<circle cx="245.5477081972706" cy="314.34947529950506" r="3.9" stroke="#f1f3f5" stroke-width="0.7 px" style="stroke-width:0.7;stroke-miterlimit:4;stroke-dasharray:none;stroke-linecap:square;fill:none"/>
<path id="Sketch_w0036"  d="M 255.5477081972706 314.34947529950506 A 10 10 0 0 1 238.66 321.599L 176.5477081972706 259.34947529950506 L 176.5477081972706 256.34947529950506 L 186.5477081972706 256.34947529950506 L 186.5477081972706 259.34947529950506 L 235.5477081972706 259.34947529950506 L 235.5477081972706 256.34947529950506 L 245.5477081972706 256.34947529950506 L 245.5477081972706 259.34947529950506 L 255.5477081972706 259.34947529950506 L 255.5477081972706 314.34947529950506 " stroke="#f1f3f5" stroke-width="0.7 px" style="stroke-width:0.7;stroke-miterlimit:4;stroke-dasharray:none;stroke-linecap:square;fill:none;fill-opacity:1;fill-rule: evenodd"/>
<circle cx="116.13" cy="286.16999999999996" r="0.71" stroke="#f1f3f5" stroke-width="0.7 px" style="stroke-width:0.7;stroke-miterlimit:4;stroke-dasharray:none;stroke-linecap:square;fill:none"/>
<circle cx="116.13" cy="206.17" r="0.71" stroke="#f1f3f5" stroke-width="0.7 px" style="stroke-width:0.7;stroke-miterlimit:4;stroke-dasharray:none;stroke-linecap:square;fill:none"/>
<circle cx="76.13" cy="246.17" r="0.71" stroke="#f1f3f5" stroke-width="0.7 px" style="stroke-width:0.7;stroke-miterlimit:4;stroke-dasharray:none;stroke-linecap:square;fill:none"/>
<circle cx="156.13" cy="246.17" r="0.71" stroke="#f1f3f5" stroke-width="0.7 px" style="stroke-width:0.7;stroke-miterlimit:4;stroke-dasharray:none;stroke-linecap:square;fill:none"/>
<path id="Sketch_w0041"  d="M 269.03678 165.025986 L 274.23678 165.025986 L 276.8425428441591 160.525986 L 274.23678 156.025986 L 269.03678 156.025986 L 266.43101715584095 160.525986 L 269.03678 165.025986 " stroke="#f1f3f5" stroke-width="0.7 px" style="stroke-width:0.7;stroke-miterlimit:4;stroke-dasharray:none;stroke-linecap:square;fill:none;fill-opacity:1;fill-rule: evenodd"/>
<path id="Sketch_w0042"  d="M 247.84927567273354 135.36616536327418 L 253.04927567273353 135.36616536327418 L 255.6550385168926 130.86616536327418 L 253.04927567273353 126.36616536327418 L 247.84927567273354 126.36616536327418 L 245.24351282857447 130.86616536327418 L 247.84927567273354 135.36616536327418 " stroke="#f1f3f5" stroke-width="0.7 px" style="stroke-width:0.7;stroke-miterlimit:4;stroke-dasharray:none;stroke-linecap:square;fill:none;fill-opacity:1;fill-rule: evenodd"/>
<path id="Sketch_w0043"  d="M 259.3795612224794 135.36616536327418 A 10 10 0 1 1 259.38 126.366L 279.3795612224794 126.36616536327418 L 274.1680355341613 135.36616536327418 L 259.3795612224794 135.36616536327418 " stroke="#f1f3f5" stroke-width="0.7 px" style="stroke-width:0.7;stroke-miterlimit:4;stroke-dasharray:none;stroke-linecap:square;fill:none;fill-opacity:1;fill-rule: evenodd"/>
<path id="Sketch_w0044"  d="M 247.88470936148093 113.7352391126146 L 253.08470936148092 113.7352391126146 L 255.69047220564 109.2352391126146 L 253.08470936148092 104.7352391126146 L 247.88470936148093 104.7352391126146 L 245.27894651732183 109.2352391126146 L 247.88470936148093 113.7352391126146 " stroke="#f1f3f5" stroke-width="0.7 px" style="stroke-width:0.7;stroke-miterlimit:4;stroke-dasharray:none;stroke-linecap:square;fill:none;fill-opacity:1;fill-rule: evenodd"/>
<path id="Sketch_w0045"  d="M 250.48470936148092 118.7352391126146 L 222.79240166917322 134.77070276897814 L 214.26588427532596 120.04590601384784 L 241.95819196763367 104.0104423574843 A 10 10 0 0 1 259.415 104.735L 279.4149949112268 104.7352391126146 L 273.6362335012523 114.71482202177023 L 258.2451327482356 114.71482202177023 A 9.5 9.5 0 0 1 250.485 118.735" stroke="#f1f3f5" stroke-width="0.7 px" style="stroke-width:0.7;stroke-miterlimit:4;stroke-dasharray:none;stroke-linecap:square;fill:none;fill-opacity:1;fill-rule: evenodd"/>
<circle cx="208.5533445379722" cy="61.22367563429753" r="10.9" stroke="#f1f3f5" stroke-width="0.7 px" style="stroke-width:0.7;stroke-miterlimit:4;stroke-dasharray:none;stroke-linecap:square;fill:none"/>
<path id="Sketch_w0047"  d="M 203.5533445379722 28.223675634297525 A 5 5 0 0 1 213.553 28.2237L 213.5533445379722 44.4531658030491 A 17.5 17.5 0 1 1 203.553 44.4532L 203.5533445379722 28.223675634297525 " stroke="#f1f3f5" stroke-width="0.7 px" style="stroke-width:0.7;stroke-miterlimit:4;stroke-dasharray:none;stroke-linecap:square;fill:none;fill-opacity:1;fill-rule: evenodd"/>
<circle cx="208.5533445379722" cy="28.223675634297525" r="0.71" stroke="#f1f3f5" stroke-width="0.7 px" style="stroke-width:0.7;stroke-miterlimit:4;stroke-dasharray:none;stroke-linecap:square;fill:none"/>
<circle cx="213.20298607750084" cy="12.842099562487837" r="0.8" stroke="#f1f3f5" stroke-width="0.7 px" style="stroke-width:0.7;stroke-miterlimit:4;stroke-dasharray:none;stroke-linecap:square;fill:none"/>
<path id="Sketch_w0050"  d="M 221.86324011534523 7.8420995624878405 A 10 10 0 0 1 207.368 20.9631L 205.798599 1.5052489999999985 L 213.050339 7.8420995624878405 L 221.86324011534523 7.8420995624878405 " stroke="#f1f3f5" stroke-width="0.7 px" style="stroke-width:0.7;stroke-miterlimit:4;stroke-dasharray:none;stroke-linecap:square;fill:none;fill-opacity:1;fill-rule: evenodd"/>
<path id="Sketch_w0051"  d="M 224.85308799999999 80.528069 L 224.85308799999999 70.528069 L 227.85308799999999 70.528069 L 227.85308799999999 11.528069000000002 L 224.85308799999999 11.528069000000002 L 224.85308799999999 1.5280689999999986 L 276.303088 1.5280689999999986 L 276.303088 11.528068999999999 L 273.303088 11.528068999999999 L 273.303088 70.528069 L 276.303088 70.528069 L 276.303088 80.528069 L 224.85308799999999 80.528069 " stroke="#f1f3f5" stroke-width="0.7 px" style="stroke-width:0.7;stroke-miterlimit:4;stroke-dasharray:none;stroke-linecap:square;fill:none;fill-opacity:1;fill-rule: evenodd"/>
<path id="Sketch_w0052"  d="M 263.453088 16.528069 L 263.453088 6.528068999999999 L 266.303088 6.528068999999999 L 266.303088 16.528069 L 263.453088 16.528069 " stroke="#f1f3f5" stroke-width="0.7 px" style="stroke-width:0.7;stroke-miterlimit:4;stroke-dasharray:none;stroke-linecap:square;fill:none;fill-opacity:1;fill-rule: evenodd"/>
<path id="Sketch_w0053"  d="M 234.85308799999999 16.528069 L 234.85308799999999 6.528068999999999 L 237.70308799999998 6.528068999999999 L 237.70308799999998 16.528069 L 234.85308799999999 16.528069 " stroke="#f1f3f5" stroke-width="0.7 px" style="stroke-width:0.7;stroke-miterlimit:4;stroke-dasharray:none;stroke-linecap:square;fill:none;fill-opacity:1;fill-rule: evenodd"/>
<path id="Sketch_w0054"  d="M 263.453088 75.528069 L 263.453088 65.528069 L 266.303088 65.528069 L 266.303088 75.528069 L 263.453088 75.528069 " stroke="#f1f3f5" stroke-width="0.7 px" style="stroke-width:0.7;stroke-miterlimit:4;stroke-dasharray:none;stroke-linecap:square;fill:none;fill-opacity:1;fill-rule: evenodd"/>
<path id="Sketch_w0055"  d="M 234.85308799999999 75.528069 L 234.85308799999999 65.528069 L 237.70308799999998 65.528069 L 237.70308799999998 75.528069 L 234.85308799999999 75.528069 " stroke="#f1f3f5" stroke-width="0.7 px" style="stroke-width:0.7;stroke-miterlimit:4;stroke-dasharray:none;stroke-linecap:square;fill:none;fill-opacity:1;fill-rule: evenodd"/>
<title>b'Sketch'</title>
</g>
</svg>