<?xml version="1.0"?>
<!DOCTYPE svg PUBLIC "-//W3C//DTD SVG 1.1//EN" "http://www.w3.org/Graphics/SVG/1.1/DTD/svg11.dtd">
<svg width="182.87915077968876mm" height="147.45898567103274mm" viewBox="0 0 182.87915077968876 147.45898567103274" xmlns="http://www.w3.org/2000/svg" version="1.1">
<g id="Sketch" transform="translate(-4.327185,149.066006) scale(1,-1)">
<circle cx="146.22158803914454" cy="25.756374107918052" r="15.25" stroke="#f1f3f5" stroke-width="0.7 px" style="stroke-width:0.7;stroke-miterlimit:4;stroke-dasharray:none;stroke-linecap:square;fill:none"/>
<path id="Sketch_w0001"  d="M 162.22158803914454 3.756374107918051 L 130.22158803914454 3.756374107918051 L 114.22158803914454 22.856374107918047 L 121.22158803914454 22.856374107918047 L 121.22158803914454 25.756374107918052 L 114.22158803914454 25.756374107918052 L 130.22158803914454 47.75637410791805 L 162.22158803914454 47.75637410791805 L 178.22158803914454 25.756374107918052 L 171.22158803914454 25.756374107918052 L 171.22158803914454 22.856374107918047 L 178.22158803914454 22.856374107918047 L 162.22158803914454 3.756374107918051 " stroke="#f1f3f5" stroke-width="0.7 px" style="stroke-width:0.7;stroke-miterlimit:4;stroke-dasharray:none;stroke-linecap:square;fill:none;fill-opacity:1;fill-rule: evenodd"/>
<path id="Sketch_w0002"  d="M 105.67852040177034 18.399952995413983 L 110.67852040177034 23.399952995413983 L 105.67852040177034 23.399952995413983 L 105.67852040177034 26.299952995413985 L 110.67852040177034 26.299952995413985 L 105.67852040177034 31.299952995413985 L 105.67852040177034 68.29995299541399 L 110.67852040177034 73.29995299541399 L 105.67852040177034 73.29995299541399 L 105.67852040177034 76.19995299541398 L 110.67852040177034 76.19995299541398 L 105.67852040177034 81.19995299541398 L 95.67852040177034 81.19995299541398 L 90.67852040177034 76.19995299541398 L 95.67852040177034 76.19995299541398 L 95.67852040177034 73.29995299541399 L 90.67852040177034 73.29995299541399 L 95.67852040177034 68.29995299541399 L 95.67852040177034 31.29995299541399 L 90.67852040177034 26.299952995413985 L 95.67852040177034 26.299952995413985 L 95.67852040177034 23.399952995413983 L 90.67852040177034 23.399952995413983 L 95.67852040177034 18.399952995413983 L 95.67852040177034 3.399952995413985 L 105.67852040177034 3.399952995413985 L 105.67852040177034 18.399952995413983 " stroke="#f1f3f5" stroke-width="0.7 px" style="stroke-width:0.7;stroke-miterlimit:4;stroke-dasharray:none;stroke-linecap:square;fill:none;fill-opacity:1;fill-rule: evenodd"/>
<path id="Sketch_w0003"  d="M 143.71340307812625 75.4730729648842 L 140.13383140915056 69.2730729648842 L 143.71340307812625 63.07307296488419 L 150.8725464160776 63.07307296488419 L 154.45211808505329 69.2730729648842 L 150.8725464160776 75.4730729648842 L 143.71340307812625 75.4730729648842 " stroke="#f1f3f5" stroke-width="0.7 px" style="stroke-width:0.7;stroke-miterlimit:4;stroke-dasharray:none;stroke-linecap:square;fill:none;fill-opacity:1;fill-rule: evenodd"/>
<path id="Sketch_w0004"  d="M 109.41340307812624 144.2730729648842 L 127.82916522045227 64.76037143413961 A 20 20 0 0 1 166.787 64.7139L 185.41340307812624 144.2730729648842 L 182.41340307812624 147.2730729648842 L 182.41340307812624 144.2730729648842 L 172.41340307812624 144.2730729648842 L 172.41340307812624 147.2730729648842 L 163.41340307812624 147.2730729648842 A 16 16 0 1 0 131.413 147.273L 122.41340307812624 147.2730729648842 L 122.41340307812624 144.2730729648842 L 112.41340307812624 144.2730729648842 L 112.41340307812624 147.2730729648842 L 109.41340307812624 144.2730729648842 " stroke="#f1f3f5" stroke-width="0.7 px" style="stroke-width:0.7;stroke-miterlimit:4;stroke-dasharray:none;stroke-linecap:square;fill:none;fill-opacity:1;fill-rule: evenodd"/>
<path id="Sketch_w0005"  d="M 122.41340307812624 119.2730729648842 L 122.41340307812624 116.4230729648842 L 132.41340307812624 116.4230729648842 L 132.41340307812624 119.2730729648842 L 122.41340307812624 119.2730729648842 " stroke="#f1f3f5" stroke-width="0.7 px" style="stroke-width:0.7;stroke-miterlimit:4;stroke-dasharray:none;stroke-linecap:square;fill:none;fill-opacity:1;fill-rule: evenodd"/>
<path id="Sketch_w0006"  d="M 162.41340307812624 119.2730729648842 L 162.41340307812624 116.4230729648842 L 172.41340307812624 116.4230729648842 L 172.41340307812624 119.2730729648842 L 162.41340307812624 119.2730729648842 " stroke="#f1f3f5" stroke-width="0.7 px" style="stroke-width:0.7;stroke-miterlimit:4;stroke-dasharray:none;stroke-linecap:square;fill:none;fill-opacity:1;fill-rule: evenodd"/>
<circle cx="38.120118" cy="25.67392" r="15.25" stroke="#f1f3f5" stroke-width="0.7 px" style="stroke-width:0.7;stroke-miterlimit:4;stroke-dasharray:none;stroke-linecap:square;fill:none"/>
<path id="Sketch_w0008"  d="M 54.120118 3.67392 L 22.120118 3.67392 L 6.1201180000000015 22.77392 L 13.120118 22.77392 L 13.120118 25.67392 L 6.120118000000002 25.67392 L 22.120118 47.67392 L 54.120118 47.67392 L 70.120118 25.67392 L 63.120118 25.67392 L 63.120118 22.77392 L 70.120118 22.77392 L 54.120118 3.67392 " stroke="#f1f3f5" stroke-width="0.7 px" style="stroke-width:0.7;stroke-miterlimit:4;stroke-dasharray:none;stroke-linecap:square;fill:none;fill-opacity:1;fill-rule: evenodd"/>
<path id="Sketch_w0009"  d="M 25.074718 66.594491 L 30.074718 71.594491 L 25.074718 71.594491 L 25.074718 74.494491 L 30.074718 74.494491 L 25.074718 79.494491 L 25.074718 116.494491 L 30.074718 121.494491 L 25.074718 121.494491 L 25.074718 124.394491 L 30.074718 124.394491 L 25.074718 129.394491 L 15.074718 129.394491 L 10.074718 124.394491 L 15.074718 124.394491 L 15.074718 121.494491 L 10.074718 121.494491 L 15.074718 116.494491 L 15.074718 79.494491 L 10.074718 74.494491 L 15.074718 74.494491 L 15.074718 71.594491 L 10.074718 71.594491 L 15.074718 66.594491 L 15.074718 51.594491 L 25.074718 51.594491 L 25.074718 66.594491 " stroke="#f1f3f5" stroke-width="0.7 px" style="stroke-width:0.7;stroke-miterlimit:4;stroke-dasharray:none;stroke-linecap:square;fill:none;fill-opacity:1;fill-rule: evenodd"/>
<path id="Sketch_w0010"  d="M 61.974863822525236 73.842459 L 58.395292999999924 67.64245900000002 L 61.974863822525236 61.442459000000014 L 69.13400673725145 61.442459000000014 L 72.71357755977677 67.64245900000002 L 69.13400673725145 73.842459 L 61.974863822525236 73.842459 " stroke="#f1f3f5" stroke-width="0.7 px" style="stroke-width:0.7;stroke-miterlimit:4;stroke-dasharray:none;stroke-linecap:square;fill:none;fill-opacity:1;fill-rule: evenodd"/>
<path id="Sketch_w0011"  d="M 27.674863822525236 142.642459 L 46.09062596485126 63.12975746925544 A 20 20 0 0 1 85.0483 63.0833L 103.67486382252524 142.642459 L 100.67486382252524 145.642459 L 100.67486382252524 142.642459 L 90.67486382252524 142.642459 L 90.67486382252524 145.642459 L 81.67486382252524 145.642459 A 16 16 0 1 0 49.6749 145.642L 40.67486382252523 145.642459 L 40.67486382252523 142.642459 L 30.674863822525236 142.642459 L 30.674863822525236 145.642459 L 27.674863822525236 142.642459 " stroke="#f1f3f5" stroke-width="0.7 px" style="stroke-width:0.7;stroke-miterlimit:4;stroke-dasharray:none;stroke-linecap:square;fill:none;fill-opacity:1;fill-rule: evenodd"/>
<path id="Sketch_w0012"  d="M 40.67486382252523 117.64245900000002 L 40.67486382252523 114.79245900000001 L 50.67486382252523 114.79245900000001 L 50.67486382252523 117.64245900000002 L 40.67486382252523 117.64245900000002 " stroke="#f1f3f5" stroke-width="0.7 px" style="stroke-width:0.7;stroke-miterlimit:4;stroke-dasharray:none;stroke-linecap:square;fill:none;fill-opacity:1;fill-rule: evenodd"/>
<path id="Sketch_w0013"  d="M 80.67486382252524 117.64245900000002 L 80.67486382252524 114.79245900000001 L 90.67486382252524 114.79245900000001 L 90.67486382252524 117.64245900000002 L 80.67486382252524 117.64245900000002 " stroke="#f1f3f5" stroke-width="0.7 px" style="stroke-width:0.7;stroke-miterlimit:4;stroke-dasharray:none;stroke-linecap:square;fill:none;fill-opacity:1;fill-rule: evenodd"/>
<title>b'Sketch'</title>
</g>
</svg>