<?xml version="1.0"?>
<!DOCTYPE svg PUBLIC "-//W3C//DTD SVG 1.1//EN" "http://www.w3.org/Graphics/SVG/1.1/DTD/svg11.dtd">
<svg width="314.0271624943399mm" height="191.33975634302627mm" viewBox="0 0 314.0271624943399 191.33975634302627" xmlns="http://www.w3.org/2000/svg" version="1.1">
<g id="Sketch" transform="translate(-7.429617,189.328194) scale(1,-1)">
<circle cx="171.280014" cy="51.067135" r="50.0" stroke="#f1f3f5" stroke-width="0.7 px" style="stroke-width:0.7;stroke-miterlimit:4;stroke-dasharray:none;stroke-linecap:square;fill:none"/>
<circle cx="171.280014" cy="51.067135" r="10.9" stroke="#f1f3f5" stroke-width="0.7 px" style="stroke-width:0.7;stroke-miterlimit:4;stroke-dasharray:none;stroke-linecap:square;fill:none"/>
<circle cx="273.378082" cy="48.914124" r="45.0" stroke="#f1f3f5" stroke-width="0.7 px" style="stroke-width:0.7;stroke-miterlimit:4;stroke-dasharray:none;stroke-linecap:square;fill:none"/>
<circle cx="273.378082" cy="48.914124" r="40.0" stroke="#f1f3f5" stroke-width="0.7 px" style="stroke-width:0.7;stroke-miterlimit:4;stroke-dasharray:none;stroke-linecap:square;fill:none"/>
<circle cx="231.411758" cy="136.249496" r="50.0" stroke="#f1f3f5" stroke-width="0.7 px" style="stroke-width:0.7;stroke-miterlimit:4;stroke-dasharray:none;stroke-linecap:square;fill:none"/>
<circle cx="231.411758" cy="136.249496" r="40.0" stroke="#f1f3f5" stroke-width="0.7 px" style="stroke-width:0.7;stroke-miterlimit:4;stroke-dasharray:none;stroke-linecap:square;fill:none"/>
<circle cx="273.91175799999996" cy="136.249496" r="0.725" stroke="#f1f3f5" stroke-width="0.7 px" style="stroke-width:0.7;stroke-miterlimit:4;stroke-dasharray:none;stroke-linecap:square;fill:none"/>
<circle cx="231.411758" cy="93.749496" r="0.725" stroke="#f1f3f5" stroke-width="0.7 px" style="stroke-width:0.7;stroke-miterlimit:4;stroke-dasharray:none;stroke-linecap:square;fill:none"/>
<circle cx="231.411758" cy="178.749496" r="0.725" stroke="#f1f3f5" stroke-width="0.7 px" style="stroke-width:0.7;stroke-miterlimit:4;stroke-dasharray:none;stroke-linecap:square;fill:none"/>
<circle cx="188.911758" cy="136.249496" r="0.725" stroke="#f1f3f5" stroke-width="0.7 px" style="stroke-width:0.7;stroke-miterlimit:4;stroke-dasharray:none;stroke-linecap:square;fill:none"/>
<circle cx="213.780014" cy="51.067135" r="0.725" stroke="#f1f3f5" stroke-width="0.7 px" style="stroke-width:0.7;stroke-miterlimit:4;stroke-dasharray:none;stroke-linecap:square;fill:none"/>
<circle cx="171.280014" cy="8.567135000000002" r="0.725" stroke="#f1f3f5" stroke-width="0.7 px" style="stroke-width:0.7;stroke-miterlimit:4;stroke-dasharray:none;stroke-linecap:square;fill:none"/>
<circle cx="171.280014" cy="93.567135" r="0.725" stroke="#f1f3f5" stroke-width="0.7 px" style="stroke-width:0.7;stroke-miterlimit:4;stroke-dasharray:none;stroke-linecap:square;fill:none"/>
<circle cx="128.780014" cy="51.067135" r="0.725" stroke="#f1f3f5" stroke-width="0.7 px" style="stroke-width:0.7;stroke-miterlimit:4;stroke-dasharray:none;stroke-linecap:square;fill:none"/>
<circle cx="315.878082" cy="48.914124" r="0.725" stroke="#f1f3f5" stroke-width="0.7 px" style="stroke-width:0.7;stroke-miterlimit:4;stroke-dasharray:none;stroke-linecap:square;fill:none"/>
<circle cx="273.378082" cy="6.4141239999999975" r="0.725" stroke="#f1f3f5" stroke-width="0.7 px" style="stroke-width:0.7;stroke-miterlimit:4;stroke-dasharray:none;stroke-linecap:square;fill:none"/>
<circle cx="273.378082" cy="91.414124" r="0.725" stroke="#f1f3f5" stroke-width="0.7 px" style="stroke-width:0.7;stroke-miterlimit:4;stroke-dasharray:none;stroke-linecap:square;fill:none"/>
<circle cx="230.878082" cy="48.914124" r="0.725" stroke="#f1f3f5" stroke-width="0.7 px" style="stroke-width:0.7;stroke-miterlimit:4;stroke-dasharray:none;stroke-linecap:square;fill:none"/>
<path id="Sketch_w0018"  d="M 59.08593025998543 129.6793823595419 L 56.08593025998543 129.6793823595419 L 56.08593025998543 126.6793823595419 L 46.08593025998543 126.6793823595419 L 46.08593025998543 129.6793823595419 L 43.08593025998543 129.6793823595419 L 43.08593025998543 160.6793823595419 L 46.08593025998543 160.6793823595419 L 46.08593025998543 163.6793823595419 L 56.08593025998543 163.6793823595419 L 56.08593025998543 160.6793823595419 L 59.08593025998543 160.6793823595419 L 59.08593025998543 129.6793823595419 " stroke="#f1f3f5" stroke-width="0.7 px" style="stroke-width:0.7;stroke-miterlimit:4;stroke-dasharray:none;stroke-linecap:square;fill:none;fill-opacity:1;fill-rule: evenodd"/>
<path id="Sketch_w0019"  d="M 41.50253700000004 129.25341 L 38.50253700000004 129.25341 L 38.50253700000004 126.25341 L 28.50253700000004 126.25341 L 28.50253700000004 129.25341 L 25.50253700000004 129.25341 L 25.50253700000004 160.25341 L 28.50253700000004 160.25341 L 28.50253700000004 163.25341 L 38.50253700000004 163.25341 L 38.50253700000004 160.25341 L 41.50253700000004 160.25341 L 41.50253700000004 129.25341 " stroke="#f1f3f5" stroke-width="0.7 px" style="stroke-width:0.7;stroke-miterlimit:4;stroke-dasharray:none;stroke-linecap:square;fill:none;fill-opacity:1;fill-rule: evenodd"/>
<path id="Sketch_w0020"  d="M 76.66934200000003 128.992324 L 73.66934200000003 128.992324 L 73.66934200000003 125.992324 L 63.66934200000003 125.992324 L 63.66934200000003 128.992324 L 60.66934200000003 128.992324 L 60.66934200000003 159.992324 L 63.66934200000003 159.992324 L 63.66934200000003 162.992324 L 73.66934200000003 162.992324 L 73.66934200000003 159.992324 L 76.66934200000003 159.992324 L 76.66934200000003 128.992324 " stroke="#f1f3f5" stroke-width="0.7 px" style="stroke-width:0.7;stroke-miterlimit:4;stroke-dasharray:none;stroke-linecap:square;fill:none;fill-opacity:1;fill-rule: evenodd"/>
<path id="Sketch_w0021"  d="M 196.280014 56.067135 L 196.280014 46.067135 L 199.130014 46.067135 L 199.130014 56.067135 L 196.280014 56.067135 " stroke="#f1f3f5" stroke-width="0.7 px" style="stroke-width:0.7;stroke-miterlimit:4;stroke-dasharray:none;stroke-linecap:square;fill:none;fill-opacity:1;fill-rule: evenodd"/>
<path id="Sketch_w0022"  d="M 163.098943 26.920291 L 154.441008 31.924306 L 153.014864 29.456795 L 161.672799 24.45278 L 163.098943 26.920291 " stroke="#f1f3f5" stroke-width="0.7 px" style="stroke-width:0.7;stroke-miterlimit:4;stroke-dasharray:none;stroke-linecap:square;fill:none;fill-opacity:1;fill-rule: evenodd"/>
<path id="Sketch_w0023"  d="M 154.467655 70.233371 L 163.132543 75.225337 L 161.709832 77.69483 L 153.044945 72.702864 L 154.467655 70.233371 " stroke="#f1f3f5" stroke-width="0.7 px" style="stroke-width:0.7;stroke-miterlimit:4;stroke-dasharray:none;stroke-linecap:square;fill:none;fill-opacity:1;fill-rule: evenodd"/>
<path id="Sketch_w0024"  d="M 37.988056999999976 79.95493300000001 L 38.988056999999976 79.95493300000001 L 38.988056999999976 74.95493300000001 L 41.83805699999998 74.95493300000001 L 41.83805699999998 79.95493300000001 L 53.83805699999998 79.95493300000001 L 53.83805699999998 74.95493300000001 L 56.68805699999998 74.95493300000001 L 56.68805699999998 79.95493300000001 L 57.68805699999998 79.95493300000001 L 64.83805699999998 74.95493300000001 L 64.83805699999998 69.95493300000001 L 63.33805699999998 69.95493300000001 L 61.538056999999974 64.95493300000001 L 59.738056999999976 69.95493300000001 L 35.93805699999998 69.95493300000001 L 34.138056999999975 64.95493300000001 L 32.33805699999998 69.95493300000001 L 30.838056999999978 69.95493300000001 L 30.838056999999978 74.95493300000001 L 37.988056999999976 79.95493300000001 " stroke="#f1f3f5" stroke-width="0.7 px" style="stroke-width:0.7;stroke-miterlimit:4;stroke-dasharray:none;stroke-linecap:square;fill:none;fill-opacity:1;fill-rule: evenodd"/>
<circle cx="34.138056999999975" cy="71.45493300000001" r="0.5" stroke="#f1f3f5" stroke-width="0.7 px" style="stroke-width:0.7;stroke-miterlimit:4;stroke-dasharray:none;stroke-linecap:square;fill:none"/>
<circle cx="61.538056999999974" cy="71.45493300000001" r="0.5" stroke="#f1f3f5" stroke-width="0.7 px" style="stroke-width:0.7;stroke-miterlimit:4;stroke-dasharray:none;stroke-linecap:square;fill:none"/>
<path id="Sketch_w0027"  d="M 18.067090532634104 81.09276735876242 L 10.508314848686332 68.00058073527936 L 10.508314848686332 50.2004624310407 L 15.508314848686332 46.7004624310407 L 15.508314848686332 51.7004624310407 L 18.35831484868633 51.7004624310407 L 18.35831484868633 46.70046243104069 A 50 50 0 0 0 68.3583 46.7005L 68.35831484868633 51.7004624310407 L 71.20831484868633 51.7004624310407 L 71.20831484868633 46.7004624310407 L 76.20831484868633 50.2004624310407 L 76.20831484868633 61.7004624310407 L 27.26324432662163 61.7004624310407 A 6 6 0 0 0 22.0671 70.7005L 28.067090532634104 81.09276735876242 L 18.067090532634104 81.09276735876242 " stroke="#f1f3f5" stroke-width="0.7 px" style="stroke-width:0.7;stroke-miterlimit:4;stroke-dasharray:none;stroke-linecap:square;fill:none;fill-opacity:1;fill-rule: evenodd"/>
<path id="Sketch_w0028"  d="M 37.708297 43.90156 L 38.708297 43.90156 L 38.708297 38.90156 L 41.558296999999996 38.90156 L 41.558296999999996 43.90156 L 53.558296999999996 43.90156 L 53.558296999999996 38.90156 L 56.408297 38.90156 L 56.408297 43.90156 L 57.408297 43.90156 L 64.558297 38.90156 L 64.558297 33.90156 L 63.058296999999996 33.90156 L 61.258297 28.901560000000003 L 59.458296999999995 33.90156 L 35.658297 33.90156 L 33.858297 28.901560000000003 L 32.058296999999996 33.90156 L 30.558297 33.90156 L 30.558297 38.90156 L 37.708297 43.90156 " stroke="#f1f3f5" stroke-width="0.7 px" style="stroke-width:0.7;stroke-miterlimit:4;stroke-dasharray:none;stroke-linecap:square;fill:none;fill-opacity:1;fill-rule: evenodd"/>
<circle cx="33.858297" cy="35.40156" r="0.5" stroke="#f1f3f5" stroke-width="0.7 px" style="stroke-width:0.7;stroke-miterlimit:4;stroke-dasharray:none;stroke-linecap:square;fill:none"/>
<circle cx="61.258297" cy="35.40156" r="0.5" stroke="#f1f3f5" stroke-width="0.7 px" style="stroke-width:0.7;stroke-miterlimit:4;stroke-dasharray:none;stroke-linecap:square;fill:none"/>
<path id="Sketch_w0031"  d="M 18.333907000000035 45.196478116946714 L 10.77513160850108 32.104291999999965 L 10.77513160850108 14.304173189225 L 15.77513160850108 10.804173189225 L 15.77513160850108 15.804173189225 L 18.62513160850107 15.804173189225 L 18.62513160850107 10.804173189224997 A 50 50 0 0 0 68.6251 10.8042L 68.62513160850108 15.804173189225 L 71.47513160850109 15.804173189225 L 71.47513160850109 10.804173189225 L 76.47513160850109 14.304173189225 L 76.47513160850109 25.804173189225 L 27.530060793987566 25.804173189225 A 6 6 0 0 0 22.3339 34.8042L 28.333907000000035 45.196478116946714 L 18.333907000000035 45.196478116946714 " stroke="#f1f3f5" stroke-width="0.7 px" style="stroke-width:0.7;stroke-miterlimit:4;stroke-dasharray:none;stroke-linecap:square;fill:none;fill-opacity:1;fill-rule: evenodd"/>
<title>b'Sketch'</title>
</g>
</svg>