<?xml version="1.0"?>
<!DOCTYPE svg PUBLIC "-//W3C//DTD SVG 1.1//EN" "http://www.w3.org/Graphics/SVG/1.1/DTD/svg11.dtd">
<svg width="634.5375301251639mm" height="395.19781384662724mm" viewBox="0 0 634.5375301251639 395.19781384662724" xmlns="http://www.w3.org/2000/svg" version="1.1">
<g id="Sketch" transform="translate(1.502919,395.920126) scale(1,-1)">
<path id="Sketch_w0000"  d="M 61.168037074039084 113.94326804706724 L 36.42920035317234 111.94326804706724 L 36.268037074039086 113.93676407100583 L 58.668037074039084 115.74768188033887 L 58.668037074039084 116.44326804706724 L 36.168037074039084 117.14326804706722 L 36.168037074039084 113.94326804706724 L 34.56803707403908 113.94326804706724 L 34.56803707403908 110.94326804706724 L 24.568037074039083 110.94326804706724 L 24.568037074039083 17.943268047067235 L 34.56803707403908 17.943268047067235 L 34.56803707403908 14.943268047067235 L 36.168037074039084 14.943268047067235 L 36.168037074039084 17.943268047067235 L 40.168037074039084 17.943268047067235 L 40.168037074039084 10.943268047067235 L 36.168037074039084 6.943268047067235 L 16.568037074039083 6.943268047067235 L 4.718037074039085 58.94326804706723 L 4.718037074039085 168.94326804706722 L 23.568037074039083 305.94326804706725 L 36.168037074039084 305.94326804706725 L 44.168037074039084 300.94326804706725 L 44.168037074039084 283.94326804706725 L 36.168037074039084 283.94326804706725 L 36.168037074039084 293.94326804706725 L 34.56803707403908 293.94326804706725 L 34.56803707403908 283.94326804706725 L 31.568037074039083 283.94326804706725 L 31.568037074039083 131.94326804706722 L 34.56803707403908 131.94326804706722 L 34.56803707403908 121.94326804706724 L 36.168037074039084 121.94326804706724 L 36.168037074039084 131.94326804706722 L 43.168037074039084 131.94326804706722 L 43.168037074039084 119.94326804706724 L 61.168037074039084 118.44326804706724 L 61.168037074039084 113.94326804706724 " stroke="#f1f3f5" stroke-width="0.7 px" style="stroke-width:0.7;stroke-miterlimit:4;stroke-dasharray:none;stroke-linecap:square;fill:none;fill-opacity:1;fill-rule: evenodd"/>
<path id="Sketch_w0001"  d="M 16.71803707403908 78.94326804706724 L 16.71803707403908 68.94326804706724 L 19.568037074039083 68.94326804706724 L 19.568037074039083 78.94326804706724 L 16.71803707403908 78.94326804706724 " stroke="#f1f3f5" stroke-width="0.7 px" style="stroke-width:0.7;stroke-miterlimit:4;stroke-dasharray:none;stroke-linecap:square;fill:none;fill-opacity:1;fill-rule: evenodd"/>
<path id="Sketch_w0002"  d="M 16.71803707403908 158.94326804706722 L 16.71803707403908 148.94326804706722 L 19.568037074039083 148.94326804706722 L 19.568037074039083 158.94326804706722 L 16.71803707403908 158.94326804706722 " stroke="#f1f3f5" stroke-width="0.7 px" style="stroke-width:0.7;stroke-miterlimit:4;stroke-dasharray:none;stroke-linecap:square;fill:none;fill-opacity:1;fill-rule: evenodd"/>
<path id="Sketch_w0003"  d="M 80.8034576043483 101.2277835464622 L 80.8034576043483 91.2277835464622 L 83.80345760434831 91.2277835464622 L 83.80345760434831 21.227783546462206 L 80.80345760434831 21.227783546462206 L 80.80345760434831 11.227783546462206 L 276.8034576043483 11.227783546462206 L 276.8034576043483 21.227783546462206 L 273.8034576043483 21.227783546462206 L 273.8034576043483 91.2277835464622 L 276.8034576043483 91.2277835464622 L 276.8034576043483 101.2277835464622 L 80.8034576043483 101.2277835464622 " stroke="#f1f3f5" stroke-width="0.7 px" style="stroke-width:0.7;stroke-miterlimit:4;stroke-dasharray:none;stroke-linecap:square;fill:none;fill-opacity:1;fill-rule: evenodd"/>
<path id="Sketch_w0004"  d="M 208.8034576043483 58.227783546462206 L 208.8034576043483 31.227783546462206 L 268.8034576043483 31.227783546462206 L 268.8034576043483 58.227783546462206 L 208.8034576043483 58.227783546462206 " stroke="#f1f3f5" stroke-width="0.7 px" style="stroke-width:0.7;stroke-miterlimit:4;stroke-dasharray:none;stroke-linecap:square;fill:none;fill-opacity:1;fill-rule: evenodd"/>
<path id="Sketch_w0005"  d="M 177.3034576043483 31.227783546462206 L 177.3034576043483 21.227783546462206 L 180.15345760434832 21.227783546462206 L 180.15345760434832 31.227783546462206 L 177.3034576043483 31.227783546462206 " stroke="#f1f3f5" stroke-width="0.7 px" style="stroke-width:0.7;stroke-miterlimit:4;stroke-dasharray:none;stroke-linecap:square;fill:none;fill-opacity:1;fill-rule: evenodd"/>
<path id="Sketch_w0006"  d="M 177.3034576043483 71.2277835464622 L 177.3034576043483 61.227783546462206 L 180.15345760434832 61.227783546462206 L 180.15345760434832 71.2277835464622 L 177.3034576043483 71.2277835464622 " stroke="#f1f3f5" stroke-width="0.7 px" style="stroke-width:0.7;stroke-miterlimit:4;stroke-dasharray:none;stroke-linecap:square;fill:none;fill-opacity:1;fill-rule: evenodd"/>
<path id="Sketch_w0007"  d="M 411.792816 8.766189761459685 L 356.792816 8.766189761459685 L 356.792816 136.76618976145969 L 361.792816 136.76618976145969 L 361.792816 139.6161897614597 L 356.792816 139.6161897614597 L 356.792816 250.76618976145969 A 15 15 0 1 0 386.793 250.766L 386.792816 101.7661897614597 L 411.792816 76.7661897614597 L 411.792816 71.7661897614597 L 414.792816 71.7661897614597 L 414.792816 61.7661897614597 L 411.792816 61.7661897614597 L 411.792816 25.766189761459692 L 414.792816 25.766189761459692 L 414.792816 15.766189761459692 L 411.792816 15.766189761459692 L 411.792816 8.766189761459685 " stroke="#f1f3f5" stroke-width="0.7 px" style="stroke-width:0.7;stroke-miterlimit:4;stroke-dasharray:none;stroke-linecap:square;fill:none;fill-opacity:1;fill-rule: evenodd"/>
<path id="Sketch_w0008"  d="M 361.792816 220.76618976145969 L 361.792816 210.76618976145969 L 364.64281600000004 210.76618976145969 L 364.64281600000004 220.76618976145969 L 361.792816 220.76618976145969 " stroke="#f1f3f5" stroke-width="0.7 px" style="stroke-width:0.7;stroke-miterlimit:4;stroke-dasharray:none;stroke-linecap:square;fill:none;fill-opacity:1;fill-rule: evenodd"/>
<path id="Sketch_w0009"  d="M 361.792816 250.76618976145969 L 361.792816 240.76618976145969 L 364.64281600000004 240.76618976145969 L 364.64281600000004 250.76618976145969 L 361.792816 250.76618976145969 " stroke="#f1f3f5" stroke-width="0.7 px" style="stroke-width:0.7;stroke-miterlimit:4;stroke-dasharray:none;stroke-linecap:square;fill:none;fill-opacity:1;fill-rule: evenodd"/>
<path id="Sketch_w0010"  d="M 351.948312509849 15.179414379062102 L 351.948312509849 25.179414379062102 L 348.948312509849 25.179414379062102 L 348.948312509849 61.1794143790621 L 351.948312509849 61.1794143790621 L 351.948312509849 71.1794143790621 L 348.948312509849 71.1794143790621 L 348.948312509849 76.1794143790621 L 323.9483125098481 101.17943888869227 L 323.9483125098481 250.179409182909 A 15 15 0 1 1 293.948 250.179L 293.948312509849 8.17941437906211 L 348.948312509849 8.17941437906211 L 348.948312509849 15.179414379062102 L 351.948312509849 15.179414379062102 " stroke="#f1f3f5" stroke-width="0.7 px" style="stroke-width:0.7;stroke-miterlimit:4;stroke-dasharray:none;stroke-linecap:square;fill:none;fill-opacity:1;fill-rule: evenodd"/>
<path id="Sketch_w0011"  d="M 298.948312509849 220.17941437906208 L 298.948312509849 210.17941437906208 L 301.79831250984904 210.17941437906208 L 301.79831250984904 220.17941437906208 L 298.948312509849 220.17941437906208 " stroke="#f1f3f5" stroke-width="0.7 px" style="stroke-width:0.7;stroke-miterlimit:4;stroke-dasharray:none;stroke-linecap:square;fill:none;fill-opacity:1;fill-rule: evenodd"/>
<path id="Sketch_w0012"  d="M 298.948312509849 250.17941437906208 L 298.948312509849 240.17941437906208 L 301.79831250984904 240.17941437906208 L 301.79831250984904 250.17941437906208 L 298.948312509849 250.17941437906208 " stroke="#f1f3f5" stroke-width="0.7 px" style="stroke-width:0.7;stroke-miterlimit:4;stroke-dasharray:none;stroke-linecap:square;fill:none;fill-opacity:1;fill-rule: evenodd"/>
<path id="Sketch_w0013"  d="M 423.1136548438076 10.766189761459692 L 423.1136548438076 76.76618976145969 L 433.9636548438076 76.76618976145969 L 524.9636548438076 48.76618976145969 L 615.9636548438076 76.7661897614597 L 626.8136548438076 76.7661897614597 L 626.8136548438076 10.766189761459696 L 615.9636548438076 10.766189761459692 L 524.9636548438076 38.76618976145969 L 433.9636548438076 10.766189761459692 L 423.1136548438076 10.766189761459692 " stroke="#f1f3f5" stroke-width="0.7 px" style="stroke-width:0.7;stroke-miterlimit:4;stroke-dasharray:none;stroke-linecap:square;fill:none;fill-opacity:1;fill-rule: evenodd"/>
<path id="Sketch_w0014"  d="M 615.9636548438076 20.766189761459692 L 615.9636548438076 66.7661897614597 L 541.2136548438076 43.76618976145969 L 615.9636548438076 20.766189761459692 " stroke="#f1f3f5" stroke-width="0.7 px" style="stroke-width:0.7;stroke-miterlimit:4;stroke-dasharray:none;stroke-linecap:square;fill:none;fill-opacity:1;fill-rule: evenodd"/>
<path id="Sketch_w0015"  d="M 508.7136548438076 43.76618976145969 L 433.9636548438076 66.7661897614597 L 433.9636548438076 20.766189761459692 L 508.7136548438076 43.76618976145969 " stroke="#f1f3f5" stroke-width="0.7 px" style="stroke-width:0.7;stroke-miterlimit:4;stroke-dasharray:none;stroke-linecap:square;fill:none;fill-opacity:1;fill-rule: evenodd"/>
<path id="Sketch_w0016"  d="M 619.9636548438076 25.766189761459692 L 619.9636548438076 15.766189761459692 L 622.8136548438076 15.766189761459692 L 622.8136548438076 25.766189761459692 L 619.9636548438076 25.766189761459692 " stroke="#f1f3f5" stroke-width="0.7 px" style="stroke-width:0.7;stroke-miterlimit:4;stroke-dasharray:none;stroke-linecap:square;fill:none;fill-opacity:1;fill-rule: evenodd"/>
<path id="Sketch_w0017"  d="M 619.9636548438076 71.7661897614597 L 619.9636548438076 61.7661897614597 L 622.8136548438076 61.7661897614597 L 622.8136548438076 71.7661897614597 L 619.9636548438076 71.7661897614597 " stroke="#f1f3f5" stroke-width="0.7 px" style="stroke-width:0.7;stroke-miterlimit:4;stroke-dasharray:none;stroke-linecap:square;fill:none;fill-opacity:1;fill-rule: evenodd"/>
<path id="Sketch_w0018"  d="M 427.1136548438076 25.766189761459692 L 427.1136548438076 15.766189761459692 L 429.9636548438076 15.766189761459692 L 429.9636548438076 25.766189761459692 L 427.1136548438076 25.766189761459692 " stroke="#f1f3f5" stroke-width="0.7 px" style="stroke-width:0.7;stroke-miterlimit:4;stroke-dasharray:none;stroke-linecap:square;fill:none;fill-opacity:1;fill-rule: evenodd"/>
<path id="Sketch_w0019"  d="M 427.1136548438076 71.7661897614597 L 427.1136548438076 61.7661897614597 L 429.9636548438076 61.7661897614597 L 429.9636548438076 71.7661897614597 L 427.1136548438076 71.7661897614597 " stroke="#f1f3f5" stroke-width="0.7 px" style="stroke-width:0.7;stroke-miterlimit:4;stroke-dasharray:none;stroke-linecap:square;fill:none;fill-opacity:1;fill-rule: evenodd"/>
<circle cx="308.948312509849" cy="250.1794143790621" r="2.5" stroke="#f1f3f5" stroke-width="0.7 px" style="stroke-width:0.7;stroke-miterlimit:4;stroke-dasharray:none;stroke-linecap:square;fill:none"/>
<circle cx="371.792816" cy="250.76618976145969" r="2.5" stroke="#f1f3f5" stroke-width="0.7 px" style="stroke-width:0.7;stroke-miterlimit:4;stroke-dasharray:none;stroke-linecap:square;fill:none"/>
<path id="Sketch_w0022"  d="M 193.0894530052418 351.915771000002 L 193.0894530052418 356.915771000002 L 185.0894530052418 356.915771000002 L 185.0894530052418 351.915771000002 L 174.0894530052418 351.915771000002 L 174.0894530052418 348.915771000002 L 171.0894530052418 348.915771000002 L 171.0894530052418 361.915771000002 L 233.0894530052418 373.915771000002 L 233.0894530052418 368.915771000002 L 235.9394530052418 368.915771000002 L 235.9394530052418 373.915771000002 L 246.9394530052418 381.415771000002 L 375.0894530052418 381.415771000002 L 406.5894530052418 361.915771000002 L 406.5894530052418 351.915771000002 L 391.5894530052418 351.915771000002 L 391.5894530052418 348.915771000002 L 386.5894530052418 348.915771000002 L 383.5894530052418 351.915771000002 L 243.9394530052418 351.915771000002 L 240.9394530052418 348.915771000002 L 235.9394530052418 348.915771000002 L 235.9394530052418 353.915771000002 L 233.0894530052418 353.915771000002 L 233.0894530052418 348.915771000002 L 204.0894530052418 348.915771000002 L 204.0894530052418 351.915771000002 L 193.0894530052418 351.915771000002 " stroke="#f1f3f5" stroke-width="0.7 px" style="stroke-width:0.7;stroke-miterlimit:4;stroke-dasharray:none;stroke-linecap:square;fill:none;fill-opacity:1;fill-rule: evenodd"/>
<path id="Sketch_w0023"  d="M 271.0894530052418 373.415771000002 L 271.0894530052418 376.415771000002 L 367.0894530052418 376.415771000002 L 367.0894530052418 373.415771000002 L 271.0894530052418 373.415771000002 " stroke="#f1f3f5" stroke-width="0.7 px" style="stroke-width:0.7;stroke-miterlimit:4;stroke-dasharray:none;stroke-linecap:square;fill:none;fill-opacity:1;fill-rule: evenodd"/>
<path id="Sketch_w0024"  d="M 366.5894530052418 360.765771000002 L 366.5894530052418 357.915771000002 L 376.5894530052418 357.915771000002 L 376.5894530052418 360.765771000002 L 366.5894530052418 360.765771000002 " stroke="#f1f3f5" stroke-width="0.7 px" style="stroke-width:0.7;stroke-miterlimit:4;stroke-dasharray:none;stroke-linecap:square;fill:none;fill-opacity:1;fill-rule: evenodd"/>
<path id="Sketch_w0025"  d="M 326.5894530052418 360.765771000002 L 326.5894530052418 357.915771000002 L 336.5894530052418 357.915771000002 L 336.5894530052418 360.765771000002 L 326.5894530052418 360.765771000002 " stroke="#f1f3f5" stroke-width="0.7 px" style="stroke-width:0.7;stroke-miterlimit:4;stroke-dasharray:none;stroke-linecap:square;fill:none;fill-opacity:1;fill-rule: evenodd"/>
<path id="Sketch_w0026"  d="M 214.0894530052418 354.765771000002 L 214.0894530052418 351.915771000002 L 224.0894530052418 351.915771000002 L 224.0894530052418 354.765771000002 L 214.0894530052418 354.765771000002 " stroke="#f1f3f5" stroke-width="0.7 px" style="stroke-width:0.7;stroke-miterlimit:4;stroke-dasharray:none;stroke-linecap:square;fill:none;fill-opacity:1;fill-rule: evenodd"/>
<path id="Sketch_w0027"  d="M 451.8388064471663 359.6991695382991 L 456.8388064471663 359.6991695382991 L 456.8388064471663 356.6991695382991 L 471.8388064471663 356.6991695382991 L 471.8388064471663 359.6991695382991 L 476.8388064471663 359.6991695382991 L 476.8388064471663 363.1991695382991 L 451.8388064471663 363.1991695382991 L 451.8388064471663 359.6991695382991 " stroke="#f1f3f5" stroke-width="0.7 px" style="stroke-width:0.7;stroke-miterlimit:4;stroke-dasharray:none;stroke-linecap:square;fill:none;fill-opacity:1;fill-rule: evenodd"/>
<path id="Sketch_w0028"  d="M 444.8388064471663 228.69916953829906 L 444.8388064471663 389.6991695382991 L 454.8388064471663 389.6991695382991 L 483.8388064471663 368.1991695382991 L 483.8388064471663 238.69916953829906 L 504.8388064471663 231.69916953829906 L 504.8388064471663 228.69916953829906 L 444.8388064471663 228.69916953829906 " stroke="#f1f3f5" stroke-width="0.7 px" style="stroke-width:0.7;stroke-miterlimit:4;stroke-dasharray:none;stroke-linecap:square;fill:none;fill-opacity:1;fill-rule: evenodd"/>
<path id="Sketch_w0029"  d="M 454.53880644716634 382.1991695382991 A 2.35 2.35 0 0 1 449.839 382.199L 449.8388064471663 372.1991695382991 A 2.35 2.35 0 0 1 454.539 372.199L 454.53880644716634 382.1991695382991 " stroke="#f1f3f5" stroke-width="0.7 px" style="stroke-width:0.7;stroke-miterlimit:4;stroke-dasharray:none;stroke-linecap:square;fill:none;fill-opacity:1;fill-rule: evenodd"/>
<path id="Sketch_w0030"  d="M 454.53880644716634 312.1991695382991 A 2.35 2.35 0 0 1 449.839 312.199L 449.8388064471663 302.1991695382991 A 2.35 2.35 0 1 1 454.539 302.199L 454.53880644716634 312.1991695382991 " stroke="#f1f3f5" stroke-width="0.7 px" style="stroke-width:0.7;stroke-miterlimit:4;stroke-dasharray:none;stroke-linecap:square;fill:none;fill-opacity:1;fill-rule: evenodd"/>
<path id="Sketch_w0031"  d="M 551.9979695684469 363.04492176988776 A 10 10 0 0 0 546.336 344.802L 546.3363643623732 294.8019716614279 A 10 10 0 1 0 536.336 284.802L 536.3363643623732 316.8019716614279 L 530.4863643623731 318.9311975318852 L 530.4863643623731 326.8019716614279 L 533.4863643623731 326.8019716614279 L 533.4863643623731 323.8019716614279 L 536.3363643623732 323.8019716614279 L 536.3363643623732 356.8019716614279 L 530.4863643623731 358.9311975318852 L 530.4863643623731 366.8019716614279 L 533.4863643623731 366.8019716614279 L 533.4863643623731 363.8019716614279 L 536.3363643623732 363.8019716614279 L 536.3363643623732 373.8019716614279 L 551.9979695684469 363.04492176988776 " stroke="#f1f3f5" stroke-width="0.7 px" style="stroke-width:0.7;stroke-miterlimit:4;stroke-dasharray:none;stroke-linecap:square;fill:none;fill-opacity:1;fill-rule: evenodd"/>
<circle cx="546.3363643623732" cy="284.8019716614279" r="2.35" stroke="#f1f3f5" stroke-width="0.7 px" style="stroke-width:0.7;stroke-miterlimit:4;stroke-dasharray:none;stroke-linecap:square;fill:none"/>
<circle cx="546.3363643623732" cy="354.8019716614279" r="2.35" stroke="#f1f3f5" stroke-width="0.7 px" style="stroke-width:0.7;stroke-miterlimit:4;stroke-dasharray:none;stroke-linecap:square;fill:none"/>
<title>b'Sketch'</title>
</g>
</svg>