<?xml version="1.0"?>
<!DOCTYPE svg PUBLIC "-//W3C//DTD SVG 1.1//EN" "http://www.w3.org/Graphics/SVG/1.1/DTD/svg11.dtd">
<svg width="125.19406646557013mm" height="163.02383088454465mm" viewBox="0 0 125.19406646557013 163.02383088454465" xmlns="http://www.w3.org/2000/svg" version="1.1">
<g id="Sketch" transform="translate(-16.632936,170.403379) scale(1,-1)">
<path id="Sketch_w0000"  d="M 41.86032875912137 8.606940920348048 L 53.86032875912137 8.606940920348048 L 53.86032875912137 11.606940920348048 L 62.86032875912137 11.606940920348048 L 62.86032875912137 65.60694092034805 L 53.86032875912137 65.60694092034805 L 53.86032875912137 68.60694092034805 L 41.86032875912137 68.60694092034805 L 41.86032875912137 65.60694092034805 L 17.86032875912137 65.60694092034805 L 17.86032875912137 11.60694092034805 L 41.86032875912137 11.606940920348048 L 41.86032875912137 8.606940920348048 " stroke="#f1f3f5" stroke-width="0.7 px" style="stroke-width:0.7;stroke-miterlimit:4;stroke-dasharray:none;stroke-linecap:square;fill:none;fill-opacity:1;fill-rule: evenodd"/>
<path id="Sketch_w0001"  d="M 47.310328759121376 57.60694092034805 L 47.310328759121376 11.606940920348052 L 48.86032875912137 11.606940920348052 L 48.86032875912137 57.60694092034805 L 47.310328759121376 57.60694092034805 " stroke="#f1f3f5" stroke-width="0.7 px" style="stroke-width:0.7;stroke-miterlimit:4;stroke-dasharray:none;stroke-linecap:square;fill:none;fill-opacity:1;fill-rule: evenodd"/>
<path id="Sketch_w0002"  d="M 17.86032875912137 88.17598618792077 L 20.86032875912137 88.17598618792077 L 20.86032875912137 78.17598618792077 L 41.86032875912137 78.17598618792077 L 41.86032875912137 81.17598618792077 L 53.86032875912137 81.17598618792077 L 53.86032875912137 78.17598618792077 L 62.86032875912137 78.17598618792077 L 62.86032875912137 169.17598618792076 L 53.86032875912137 169.17598618792076 L 53.86032875912137 166.17598618792076 L 41.86032875912137 166.17598618792076 L 41.86032875912137 169.17598618792076 L 20.86032875912137 169.17598618792076 L 20.86032875912137 159.17598618792076 L 17.86032875912137 159.17598618792076 L 17.86032875912137 88.17598618792077 " stroke="#f1f3f5" stroke-width="0.7 px" style="stroke-width:0.7;stroke-miterlimit:4;stroke-dasharray:none;stroke-linecap:square;fill:none;fill-opacity:1;fill-rule: evenodd"/>
<path id="Sketch_w0003"  d="M 58.01032875912137 98.17598618792077 L 58.01032875912137 88.17598618792077 L 60.86032875912137 88.17598618792077 L 60.86032875912137 98.17598618792077 L 58.01032875912137 98.17598618792077 " stroke="#f1f3f5" stroke-width="0.7 px" style="stroke-width:0.7;stroke-miterlimit:4;stroke-dasharray:none;stroke-linecap:square;fill:none;fill-opacity:1;fill-rule: evenodd"/>
<path id="Sketch_w0004"  d="M 58.01032875912137 159.17598618792076 L 58.01032875912137 149.17598618792076 L 60.86032875912137 149.17598618792076 L 60.86032875912137 159.17598618792076 L 58.01032875912137 159.17598618792076 " stroke="#f1f3f5" stroke-width="0.7 px" style="stroke-width:0.7;stroke-miterlimit:4;stroke-dasharray:none;stroke-linecap:square;fill:none;fill-opacity:1;fill-rule: evenodd"/>
<path id="Sketch_w0005"  d="M 137.59960960771954 81.17598618792077 L 137.59960960771954 88.17598618792077 L 140.59960960771954 88.17598618792077 L 140.59960960771954 98.17598618792077 L 137.59960960771954 98.17598618792077 L 137.59960960771954 149.17598618792076 L 140.59960960771954 149.17598618792076 L 140.59960960771954 159.17598618792076 L 137.59960960771954 159.17598618792076 L 137.59960960771954 166.17598618792076 L 81.59960960771954 166.17598618792076 L 81.59960960771954 159.17598618792076 L 78.59960960771954 159.17598618792076 L 78.59960960771954 149.17598618792076 L 81.59960960771954 149.17598618792076 L 81.59960960771954 98.17598618792077 L 78.59960960771954 98.17598618792077 L 78.59960960771954 88.17598618792077 L 81.59960960771954 88.17598618792077 L 81.59960960771954 81.17598618792077 L 84.59960960771954 81.17598618792077 L 84.59960960771954 101.17598618792077 L 104.59960960771954 101.17598618792077 L 104.59960960771954 81.17598618792077 L 137.59960960771954 81.17598618792077 " stroke="#f1f3f5" stroke-width="0.7 px" style="stroke-width:0.7;stroke-miterlimit:4;stroke-dasharray:none;stroke-linecap:square;fill:none;fill-opacity:1;fill-rule: evenodd"/>
<title>b'Sketch'</title>
</g>
</svg>