<?xml version="1.0"?>
<!DOCTYPE svg PUBLIC "-//W3C//DTD SVG 1.1//EN" "http://www.w3.org/Graphics/SVG/1.1/DTD/svg11.dtd">
<svg width="236.65125922587976mm" height="162.1681604335604mm" viewBox="0 0 236.65125922587976 162.1681604335604" xmlns="http://www.w3.org/2000/svg" version="1.1">
<g id="Sketch" transform="translate(-7.849996,175.473390) scale(1,-1)">
<path id="Sketch_w0000"  d="M 102.831459 15.625340201671092 L 114.831459 15.625340201671092 L 114.831459 18.625340201671094 L 124.831459 18.625340201671094 L 124.831459 64.6253402016711 L 114.831459 64.6253402016711 L 114.831459 67.6253402016711 L 102.831459 67.6253402016711 L 102.831459 64.6253402016711 L 81.831459 64.6253402016711 L 81.831459 67.6253402016711 L 78.831459 67.6253402016711 L 78.831459 15.625340201671094 L 81.831459 15.625340201671094 L 81.831459 18.625340201671094 L 102.831459 18.625340201671094 L 102.831459 15.625340201671092 " stroke="#f1f3f5" stroke-width="0.7 px" style="stroke-width:0.7;stroke-miterlimit:4;stroke-dasharray:none;stroke-linecap:square;fill:none;fill-opacity:1;fill-rule: evenodd"/>
<path id="Sketch_w0001"  d="M 78.831459 93.1532798660966 L 81.831459 93.1532798660966 L 81.831459 80.1532798660966 L 102.831459 80.1532798660966 L 102.831459 83.1532798660966 L 114.831459 83.1532798660966 L 114.831459 80.1532798660966 L 124.831459 80.1532798660966 L 124.831459 173.1532798660966 L 114.831459 173.1532798660966 L 114.831459 170.1532798660966 L 102.831459 170.1532798660966 L 102.831459 173.1532798660966 L 81.831459 173.1532798660966 L 81.831459 160.1532798660966 L 78.831459 160.1532798660966 L 78.831459 93.1532798660966 " stroke="#f1f3f5" stroke-width="0.7 px" style="stroke-width:0.7;stroke-miterlimit:4;stroke-dasharray:none;stroke-linecap:square;fill:none;fill-opacity:1;fill-rule: evenodd"/>
<path id="Sketch_w0002"  d="M 118.98145899999999 100.1532798660966 L 118.98145899999999 90.1532798660966 L 121.831459 90.1532798660966 L 121.831459 100.1532798660966 L 118.98145899999999 100.1532798660966 " stroke="#f1f3f5" stroke-width="0.7 px" style="stroke-width:0.7;stroke-miterlimit:4;stroke-dasharray:none;stroke-linecap:square;fill:none;fill-opacity:1;fill-rule: evenodd"/>
<path id="Sketch_w0003"  d="M 118.98145899999999 163.1532798660966 L 118.98145899999999 153.1532798660966 L 121.831459 153.1532798660966 L 121.831459 163.1532798660966 L 118.98145899999999 163.1532798660966 " stroke="#f1f3f5" stroke-width="0.7 px" style="stroke-width:0.7;stroke-miterlimit:4;stroke-dasharray:none;stroke-linecap:square;fill:none;fill-opacity:1;fill-rule: evenodd"/>
<path id="Sketch_w0004"  d="M 183.22309899999996 83.1532798660966 L 183.22309899999996 90.1532798660966 L 186.22309899999996 90.1532798660966 L 186.22309899999996 100.1532798660966 L 183.22309899999996 100.1532798660966 L 183.22309899999996 153.1532798660966 L 186.22309899999996 153.1532798660966 L 186.22309899999996 163.1532798660966 L 183.22309899999996 163.1532798660966 L 183.22309899999996 170.1532798660966 L 137.22309899999996 170.1532798660966 L 137.22309899999996 163.1532798660966 L 134.22309899999996 163.1532798660966 L 134.22309899999996 153.1532798660966 L 137.22309899999996 153.1532798660966 L 137.22309899999996 104.1532798660966 L 149.22309899999996 104.1532798660966 L 149.22309899999996 83.1532798660966 L 183.22309899999996 83.1532798660966 " stroke="#f1f3f5" stroke-width="0.7 px" style="stroke-width:0.7;stroke-miterlimit:4;stroke-dasharray:none;stroke-linecap:square;fill:none;fill-opacity:1;fill-rule: evenodd"/>
<path id="Sketch_w0005"  d="M 104.63145899999999 100.1532798660966 L 104.63145899999999 90.1532798660966 L 107.48145899999999 90.1532798660966 L 107.48145899999999 100.1532798660966 L 104.63145899999999 100.1532798660966 " stroke="#f1f3f5" stroke-width="0.7 px" style="stroke-width:0.7;stroke-miterlimit:4;stroke-dasharray:none;stroke-linecap:square;fill:none;fill-opacity:1;fill-rule: evenodd"/>
<path id="Sketch_w0006"  d="M 104.63145899999999 163.1532798660966 L 104.63145899999999 153.1532798660966 L 107.48145899999999 153.1532798660966 L 107.48145899999999 163.1532798660966 L 104.63145899999999 163.1532798660966 " stroke="#f1f3f5" stroke-width="0.7 px" style="stroke-width:0.7;stroke-miterlimit:4;stroke-dasharray:none;stroke-linecap:square;fill:none;fill-opacity:1;fill-rule: evenodd"/>
<path id="Sketch_w0007"  d="M 239.1811444084621 83.1532798660966 L 239.1811444084621 90.1532798660966 L 242.1811444084621 90.1532798660966 L 242.1811444084621 100.1532798660966 L 239.1811444084621 100.1532798660966 L 239.1811444084621 153.1532798660966 L 242.1811444084621 153.1532798660966 L 242.1811444084621 163.1532798660966 L 239.1811444084621 163.1532798660966 L 239.1811444084621 170.1532798660966 L 193.1811444084621 170.1532798660966 L 193.1811444084621 163.1532798660966 L 190.1811444084621 163.1532798660966 L 190.1811444084621 153.1532798660966 L 193.1811444084621 153.1532798660966 L 193.1811444084621 126.6532798660966 L 206.1811444084621 126.6532798660966 L 206.1811444084621 83.1532798660966 L 239.1811444084621 83.1532798660966 " stroke="#f1f3f5" stroke-width="0.7 px" style="stroke-width:0.7;stroke-miterlimit:4;stroke-dasharray:none;stroke-linecap:square;fill:none;fill-opacity:1;fill-rule: evenodd"/>
<path id="Sketch_w0008"  d="M 62.17010595171724 170.1532798660966 L 10.17010595171724 170.1532798660966 L 10.17010595171724 160.1532798660966 L 13.170105951717241 160.1532798660966 L 13.170105951717241 93.1532798660966 L 10.170105951717241 93.1532798660966 L 10.170105951717241 83.1532798660966 L 62.17010595171724 83.1532798660966 L 62.17010595171724 93.1532798660966 L 59.17010595171724 93.1532798660966 L 59.17010595171724 160.1532798660966 L 62.17010595171724 160.1532798660966 L 62.17010595171724 170.1532798660966 " stroke="#f1f3f5" stroke-width="0.7 px" style="stroke-width:0.7;stroke-miterlimit:4;stroke-dasharray:none;stroke-linecap:square;fill:none;fill-opacity:1;fill-rule: evenodd"/>
<circle cx="235.1811444084621" cy="141.6532798660966" r="2.0" stroke="#f1f3f5" stroke-width="0.7 px" style="stroke-width:0.7;stroke-miterlimit:4;stroke-dasharray:none;stroke-linecap:square;fill:none"/>
<circle cx="235.1811444084621" cy="124.6532798660966" r="2.0" stroke="#f1f3f5" stroke-width="0.7 px" style="stroke-width:0.7;stroke-miterlimit:4;stroke-dasharray:none;stroke-linecap:square;fill:none"/>
<circle cx="235.1811444084621" cy="107.6532798660966" r="2.0" stroke="#f1f3f5" stroke-width="0.7 px" style="stroke-width:0.7;stroke-miterlimit:4;stroke-dasharray:none;stroke-linecap:square;fill:none"/>
<circle cx="235.1811444084621" cy="90.6532798660966" r="2.0" stroke="#f1f3f5" stroke-width="0.7 px" style="stroke-width:0.7;stroke-miterlimit:4;stroke-dasharray:none;stroke-linecap:square;fill:none"/>
<circle cx="235.1811444084621" cy="158.6532798660966" r="2.0" stroke="#f1f3f5" stroke-width="0.7 px" style="stroke-width:0.7;stroke-miterlimit:4;stroke-dasharray:none;stroke-linecap:square;fill:none"/>
<path id="Sketch_w0014"  d="M 188.889099 50.076503 L 188.889099 51.126503 L 190.48909899999998 51.126503 L 190.48909899999998 53.626503 L 185.48909899999998 53.626503 L 185.48909899999998 43.626503 L 215.88909899990958 43.626503 L 215.88909899990958 53.626503 L 210.889099 53.626503 L 210.889099 51.126503 L 212.48909899999998 51.126503 L 212.48909899999998 50.076503 L 208.289099 50.076503 L 208.289099 48.076503 L 193.089099 48.076503 L 193.089099 50.076503 L 188.889099 50.076503 " stroke="#f1f3f5" stroke-width="0.7 px" style="stroke-width:0.7;stroke-miterlimit:4;stroke-dasharray:none;stroke-linecap:square;fill:none;fill-opacity:1;fill-rule: evenodd"/>
<title>b'Sketch'</title>
</g>
</svg>