<?xml version="1.0"?>
<!DOCTYPE svg PUBLIC "-//W3C//DTD SVG 1.1//EN" "http://www.w3.org/Graphics/SVG/1.1/DTD/svg11.dtd">
<svg width="484.76500212814403mm" height="445.19973212015964mm" viewBox="0 0 484.76500212814403 445.19973212015964" xmlns="http://www.w3.org/2000/svg" version="1.1">
<g id="Sketch" transform="translate(2.418263,441.471684) scale(1,-1)">
<path id="Sketch_w0000"  d="M 31.92331500000001 118.67440734235876 L 26.92331500000001 118.67440734235876 L 26.92331500000001 115.82440734235877 L 31.92331500000001 115.82440734235877 L 31.92331500000001 113.82440734235877 L 36.92331500000001 111.09940734235876 L 36.92331500000001 94.24940734235877 L 31.92331500000001 91.52440734235876 L 31.92331500000001 89.52440734235876 L 26.92331500000001 89.52440734235876 L 26.92331500000001 86.67440734235876 L 31.92331500000001 86.67440734235876 L 31.92331500000001 85.67440734235876 L 22.92331500000001 72.67440734235876 L 9.42331500000001 72.67440734235876 L 3.4233150000000094 77.42440734235876 L 3.4233150000000094 81.42440734235876 L 5.423315000000009 81.42440734235876 L 5.423315000000009 79.67440734235876 L 16.92331500000001 79.67440734235876 L 16.92331500000001 101.24940734235877 L 26.92331500000001 101.24940734235877 L 26.92331500000001 104.09940734235876 L 16.92331500000001 104.09940734235876 L 16.92331500000001 125.67440734235876 L 5.423315000000009 125.67440734235876 L 5.423315000000009 123.92440734235876 L 3.4233150000000094 123.92440734235876 L 3.4233150000000094 127.92440734235876 L 9.42331500000001 132.67440734235876 L 9.42331500000001 135.67440734235876 L 11.42331500000001 135.67440734235876 L 11.42331500000001 138.67440734235876 L 16.42331500000001 138.67440734235876 L 16.42331500000001 135.67440734235876 L 18.42331500000001 135.67440734235876 L 18.42331500000001 132.67440734235876 L 22.92331500000001 132.67440734235876 L 31.92331500000001 119.67440734235876 L 31.92331500000001 118.67440734235876 " stroke="#f1f3f5" stroke-width="0.7 px" style="stroke-width:0.7;stroke-miterlimit:4;stroke-dasharray:none;stroke-linecap:square;fill:none;fill-opacity:1;fill-rule: evenodd"/>
<path id="Sketch_w0001"  d="M 101.26068883976139 71.818214524024 L 90.26068883976139 71.818214524024 L 90.26068883976139 69.818214524024 L 97.26068883976139 64.818214524024 L 111.26068883976139 64.818214524024 L 121.26068883976139 93.393214524024 L 111.26068883976139 93.393214524024 L 111.26068883976139 96.243214524024 L 121.26068883976139 96.243214524024 L 111.26068883976139 124.818214524024 L 97.26068883976139 124.818214524024 L 90.26068883976139 119.818214524024 L 90.26068883976139 117.818214524024 L 101.26068883976139 117.818214524024 L 101.26068883976139 71.818214524024 " stroke="#f1f3f5" stroke-width="0.7 px" style="stroke-width:0.7;stroke-miterlimit:4;stroke-dasharray:none;stroke-linecap:square;fill:none;fill-opacity:1;fill-rule: evenodd"/>
<circle cx="63.165232114485825" cy="81.82656600265436" r="10.9" stroke="#f1f3f5" stroke-width="0.7 px" style="stroke-width:0.7;stroke-miterlimit:4;stroke-dasharray:none;stroke-linecap:square;fill:none"/>
<path id="Sketch_w0003"  d="M 89.06523211448584 83.25156600265436 A 25.9392 25.9392 0 0 1 37.2652 83.2516L 47.265232114485826 83.25156600265436 L 47.265232114485826 80.40156600265436 L 37.265232114485826 80.40156600265436 A 25.9392 25.9392 0 0 1 89.0652 80.4016L 79.06523211448582 80.40156600265436 L 79.06523211448582 83.25156600265436 L 89.06523211448584 83.25156600265436 " stroke="#f1f3f5" stroke-width="0.7 px" style="stroke-width:0.7;stroke-miterlimit:4;stroke-dasharray:none;stroke-linecap:square;fill:none;fill-opacity:1;fill-rule: evenodd"/>
<circle cx="61.643473439989606" cy="147.6186950000008" r="21.4" stroke="#f1f3f5" stroke-width="0.7 px" style="stroke-width:0.7;stroke-miterlimit:4;stroke-dasharray:none;stroke-linecap:square;fill:none"/>
<path id="Sketch_w0005"  d="M 25.143473439989606 147.6186950000008 A 36.5 36.5 0 0 1 98.1435 147.619L 103.1434734399896 147.6186950000008 A 41.5 41.5 0 0 1 20.1435 147.619L 25.143473439989606 147.6186950000008 " stroke="#f1f3f5" stroke-width="0.7 px" style="stroke-width:0.7;stroke-miterlimit:4;stroke-dasharray:none;stroke-linecap:square;fill:none;fill-opacity:1;fill-rule: evenodd"/>
<path id="Sketch_w0006"  d="M 30.243473439989607 149.0436950000008 L 30.243473439989607 146.1936950000008 L 35.24347343998961 146.1936950000008 L 35.24347343998961 149.0436950000008 L 30.243473439989607 149.0436950000008 " stroke="#f1f3f5" stroke-width="0.7 px" style="stroke-width:0.7;stroke-miterlimit:4;stroke-dasharray:none;stroke-linecap:square;fill:none;fill-opacity:1;fill-rule: evenodd"/>
<path id="Sketch_w0007"  d="M 88.04347343998961 149.0436950000008 L 88.04347343998961 146.1936950000008 L 93.04347343998961 146.1936950000008 L 93.04347343998961 149.0436950000008 L 88.04347343998961 149.0436950000008 " stroke="#f1f3f5" stroke-width="0.7 px" style="stroke-width:0.7;stroke-miterlimit:4;stroke-dasharray:none;stroke-linecap:square;fill:none;fill-opacity:1;fill-rule: evenodd"/>
<path id="Sketch_w0008"  d="M 30.834335 48.143197 L 25.834335 48.143197 L 25.834335 45.293197 L 30.834335 45.293197 L 30.834335 43.293197 L 35.834335 40.568197 L 35.834335 23.718197 L 30.834335 20.993197 L 30.834335 18.993197 L 25.834335 18.993197 L 25.834335 16.143197 L 30.834335 16.143197 L 30.834335 15.143197 L 21.834335 2.1431970000000007 L 8.334335 2.1431970000000007 L 2.3343349999999994 6.893197 L 2.334335 10.893197 L 4.334335 10.893197 L 4.334335 9.143197 L 15.834335 9.143197 L 15.834335 30.718197 L 25.834335 30.718197 L 25.834335 33.568197 L 15.834335 33.568197 L 15.834335 55.143197 L 4.334334999999999 55.143197 L 4.334334999999999 53.393197 L 2.334335 53.393197 L 2.334335 57.393197 L 8.334335 62.143197 L 8.334335 65.143197 L 10.334335 65.143197 L 10.334335 68.143197 L 15.334335 68.143197 L 15.334335 65.143197 L 17.334335 65.143197 L 17.334335 62.143197 L 21.834335 62.143197 L 30.834335 49.143197 L 30.834335 48.143197 " stroke="#f1f3f5" stroke-width="0.7 px" style="stroke-width:0.7;stroke-miterlimit:4;stroke-dasharray:none;stroke-linecap:square;fill:none;fill-opacity:1;fill-rule: evenodd"/>
<path id="Sketch_w0009"  d="M 99.458611 8.02455 L 88.458611 8.02455 L 88.458611 6.024549999999999 L 95.458611 1.024549999999997 L 109.458611 1.0245499999999965 L 119.458611 29.59955 L 109.458611 29.59955 L 109.458611 32.44955 L 119.458611 32.44955 L 109.458611 61.02455 L 95.458611 61.02455 L 88.458611 56.02455 L 88.458611 54.02455 L 99.458611 54.02455 L 99.458611 8.02455 " stroke="#f1f3f5" stroke-width="0.7 px" style="stroke-width:0.7;stroke-miterlimit:4;stroke-dasharray:none;stroke-linecap:square;fill:none;fill-opacity:1;fill-rule: evenodd"/>
<circle cx="64.720491" cy="27.860491129901142" r="10.9" stroke="#f1f3f5" stroke-width="0.7 px" style="stroke-width:0.7;stroke-miterlimit:4;stroke-dasharray:none;stroke-linecap:square;fill:none"/>
<path id="Sketch_w0011"  d="M 90.62049099999982 29.285491129901175 A 25.9392 25.9392 0 0 1 38.8205 29.2855L 48.820491000000004 29.28549112990101 L 48.820491000000004 26.43549112990114 L 38.82049100000086 26.43549112990113 A 25.9392 25.9392 0 0 1 90.6205 26.4355L 80.620491 26.43549112990111 L 80.620491 29.285491129901175 L 90.62049099999982 29.285491129901175 " stroke="#f1f3f5" stroke-width="0.7 px" style="stroke-width:0.7;stroke-miterlimit:4;stroke-dasharray:none;stroke-linecap:square;fill:none;fill-opacity:1;fill-rule: evenodd"/>
<circle cx="249.46531900000002" cy="93.624974" r="50.0" stroke="#f1f3f5" stroke-width="0.7 px" style="stroke-width:0.7;stroke-miterlimit:4;stroke-dasharray:none;stroke-linecap:square;fill:none"/>
<path id="Sketch_w0013"  d="M 219.4653190000004 142.09145726421076 L 219.4653190000004 162.0914572642114 L 234.46531900000002 162.0914572642114 L 234.46531900000002 165.0914572642114 L 244.46531900000002 165.0914572642114 L 244.46531900000002 162.0914572642114 L 254.46531900000002 162.0914572642114 L 254.46531900000002 165.0914572642114 L 264.465319 165.0914572642114 L 264.465319 162.0914572642114 L 279.465319 162.0914572642114 L 279.465319 142.09145726421139 A 57 57 0 0 0 297.934 123.621L 317.934202 123.619497 L 317.933002 108.619497 L 320.933002 108.619257 L 320.932202 98.619257 L 317.932202 98.619497 L 317.931402 88.619497 L 320.931402 88.619257 L 320.930602 78.619257 L 317.930602 78.619497 L 317.929403 63.619497 L 297.9293879254643 63.62107386705324 A 57 57 0 0 0 279.458 45.1537L 279.454365 25.153692 L 264.454365 25.156092 L 264.453885 22.156092 L 254.453886 22.157692 L 254.454365 25.157692 L 244.454366 25.159291 L 244.453886 22.159292 L 234.453886 22.160891 L 234.454366 25.160891 L 219.454366 25.163291 L 219.45755767458337 45.163295735242926 A 57 57 0 0 0 200.992 63.6366L 180.991639 63.641405 L 180.995238 78.641405 L 177.995238 78.642125 L 177.997638 88.642125 L 180.997638 88.641405 L 181.000038 98.641404 L 178.000038 98.642124 L 178.002438 108.642124 L 181.002438 108.641404 L 181.006037 123.641404 L 201.00603170357618 123.6365963274027 A 57 57 0 0 0 219.465 142.091" stroke="#f1f3f5" stroke-width="0.7 px" style="stroke-width:0.7;stroke-miterlimit:4;stroke-dasharray:none;stroke-linecap:square;fill:none;fill-opacity:1;fill-rule: evenodd"/>
<circle cx="241.55391199999997" cy="292.1102696702608" r="4.9" stroke="#f1f3f5" stroke-width="0.7 px" style="stroke-width:0.7;stroke-miterlimit:4;stroke-dasharray:none;stroke-linecap:square;fill:none"/>
<path id="Sketch_w0015"  d="M 230.6466036702607 290.68526967026077 L 233.6466036702607 290.68526967026077 L 233.6466036702607 293.5352696702608 L 230.6466036702607 293.5352696702608 A 11 11 0 0 0 240.129 303.018L 240.12891199999999 300.01757800000007 L 242.97891199999995 300.01757800000007 L 242.97891199999995 303.01757800000007 A 11 11 0 0 0 252.461 293.535L 249.46122032973926 293.5352696702608 L 249.46122032973926 290.68526967026077 L 252.46122032973926 290.68526967026077 A 11 11 0 0 0 242.979 281.203L 242.97891199999998 284.2029613405215 L 240.12891199999996 284.2029613405215 L 240.12891199999996 281.2029613405215 A 11 11 0 0 0 230.647 290.685" stroke="#f1f3f5" stroke-width="0.7 px" style="stroke-width:0.7;stroke-miterlimit:4;stroke-dasharray:none;stroke-linecap:square;fill:none;fill-opacity:1;fill-rule: evenodd"/>
<circle cx="201.30919200000002" cy="272.1820466702607" r="4.9" stroke="#f1f3f5" stroke-width="0.7 px" style="stroke-width:0.7;stroke-miterlimit:4;stroke-dasharray:none;stroke-linecap:square;fill:none"/>
<path id="Sketch_w0017"  d="M 190.40188367026076 270.7570466702607 L 193.40188367026073 270.7570466702607 L 193.40188367026073 273.60704667026073 L 190.40188367026073 273.60704667026073 A 11 11 0 0 0 199.884 283.089L 199.884192 280.089355 L 202.73419200000004 280.089355 L 202.73419200000004 283.089355 A 11 11 0 0 0 212.217 273.607L 209.2165003297393 273.60704667026073 L 209.2165003297393 270.7570466702607 L 212.21650032973932 270.7570466702607 A 11 11 0 0 0 202.734 261.275L 202.734192 264.2747383405214 L 199.884192 264.2747383405214 L 199.884192 261.2747383405214 A 11 11 0 0 0 190.402 270.757" stroke="#f1f3f5" stroke-width="0.7 px" style="stroke-width:0.7;stroke-miterlimit:4;stroke-dasharray:none;stroke-linecap:square;fill:none;fill-opacity:1;fill-rule: evenodd"/>
<path id="Sketch_w0018"  d="M 219.78824150393115 267.892333698498 L 222.58824150393113 267.892333698498 L 222.58824150393113 261.892333698498 L 227.58824150393113 261.892333698498 L 227.58824150393113 264.892333698498 L 257.58824150393116 264.892333698498 L 257.58824150393116 261.892333698498 L 262.58824150393116 261.892333698498 L 262.58824150393116 267.892333698498 L 257.7420876577773 274.892333698498 L 234.58824150393113 274.892333698498 L 225.58824150393113 287.892333698498 L 222.58824150393113 287.892333698498 L 222.58824150393113 284.892333698498 L 219.78824150393115 284.892333698498 L 219.78824150393115 267.892333698498 " stroke="#f1f3f5" stroke-width="0.7 px" style="stroke-width:0.7;stroke-miterlimit:4;stroke-dasharray:none;stroke-linecap:square;fill:none;fill-opacity:1;fill-rule: evenodd"/>
<path id="Sketch_w0019"  d="M 101.34424699999998 282.967468 L 104.14424699999998 282.967468 L 104.14424699999998 276.967468 L 109.14424699999998 276.967468 L 109.14424699999998 279.967468 L 139.14424699999998 279.967468 L 139.14424699999998 276.967468 L 144.14424699999998 276.967468 L 144.14424699999998 282.967468 L 139.29809315384614 289.967468 L 116.14424699999998 289.967468 L 107.14424699999998 302.967468 L 104.14424699999998 302.967468 L 104.14424699999998 299.967468 L 101.34424699999998 299.967468 L 101.34424699999998 282.967468 " stroke="#f1f3f5" stroke-width="0.7 px" style="stroke-width:0.7;stroke-miterlimit:4;stroke-dasharray:none;stroke-linecap:square;fill:none;fill-opacity:1;fill-rule: evenodd"/>
<path id="Sketch_w0020"  d="M 102.18550100000002 253.59027099999997 L 104.98550100000001 253.59027099999997 L 104.98550100000001 247.59027099999997 L 109.98550100000001 247.59027099999997 L 109.98550100000001 250.59027099999997 L 139.98550100000003 250.59027099999997 L 139.98550100000003 247.59027099999997 L 144.98550100000003 247.59027099999997 L 144.98550100000003 253.59027099999997 L 140.13934715384616 260.590271 L 116.98550100000001 260.590271 L 107.98550100000001 273.590271 L 104.98550100000001 273.590271 L 104.98550100000001 270.590271 L 102.18550100000002 270.590271 L 102.18550100000002 253.59027099999997 " stroke="#f1f3f5" stroke-width="0.7 px" style="stroke-width:0.7;stroke-miterlimit:4;stroke-dasharray:none;stroke-linecap:square;fill:none;fill-opacity:1;fill-rule: evenodd"/>
<path id="Sketch_w0021"  d="M 146.63786299999998 257.842224 L 149.437863 257.842224 L 149.437863 251.842224 L 154.437863 251.842224 L 154.437863 254.842224 L 184.437863 254.842224 L 184.437863 251.842224 L 189.437863 251.842224 L 189.437863 257.842224 L 184.59170915384615 264.842224 L 161.437863 264.842224 L 152.437863 277.842224 L 149.437863 277.842224 L 149.437863 274.842224 L 146.63786299999998 274.842224 L 146.63786299999998 257.842224 " stroke="#f1f3f5" stroke-width="0.7 px" style="stroke-width:0.7;stroke-miterlimit:4;stroke-dasharray:none;stroke-linecap:square;fill:none;fill-opacity:1;fill-rule: evenodd"/>
<path id="Sketch_w0022"  d="M 181.49890399999998 375.27608599999996 L 181.49890399999998 370.27608599999996 L 184.348904 370.27608599999996 L 184.348904 375.27608599999996 L 181.49890399999998 375.27608599999996 " stroke="#f1f3f5" stroke-width="0.7 px" style="stroke-width:0.7;stroke-miterlimit:4;stroke-dasharray:none;stroke-linecap:square;fill:none;fill-opacity:1;fill-rule: evenodd"/>
<path id="Sketch_w0023"  d="M 181.49890399999998 410.27608599999996 L 181.49890399999998 405.27608599999996 L 184.348904 405.27608599999996 L 184.348904 410.27608599999996 L 181.49890399999998 410.27608599999996 " stroke="#f1f3f5" stroke-width="0.7 px" style="stroke-width:0.7;stroke-miterlimit:4;stroke-dasharray:none;stroke-linecap:square;fill:none;fill-opacity:1;fill-rule: evenodd"/>
<path id="Sketch_w0024"  d="M 152.923904 433.71908599999995 L 152.923904 430.8690859999999 L 162.923904 430.8690859999999 L 162.923904 433.71908599999995 L 152.923904 433.71908599999995 " stroke="#f1f3f5" stroke-width="0.7 px" style="stroke-width:0.7;stroke-miterlimit:4;stroke-dasharray:none;stroke-linecap:square;fill:none;fill-opacity:1;fill-rule: evenodd"/>
<path id="Sketch_w0025"  d="M 202.923904 433.71908599999995 L 202.923904 430.8690859999999 L 212.923904 430.8690859999999 L 212.923904 433.71908599999995 L 202.923904 433.71908599999995 " stroke="#f1f3f5" stroke-width="0.7 px" style="stroke-width:0.7;stroke-miterlimit:4;stroke-dasharray:none;stroke-linecap:square;fill:none;fill-opacity:1;fill-rule: evenodd"/>
<path id="Sketch_w0026"  d="M 147.923904 436.71908599999995 L 217.923904 436.71908599999995 L 257.283674 397.348324 L 257.264128 327.348326 L 217.882376 287.999551 L 147.882387 288.038644 L 108.54461 327.431381 L 108.60325 397.431357 L 147.923904 436.71908599999995 " stroke="#f1f3f5" stroke-width="0.7 px" style="stroke-width:0.7;stroke-miterlimit:4;stroke-dasharray:none;stroke-linecap:square;fill:none;fill-opacity:1;fill-rule: evenodd"/>
<path id="Sketch_w0027"  d="M 195.831301 363.790482 L 190.831302 363.791878 L 190.830506 360.941878 L 195.830506 360.940482 L 195.831301 363.790482 " stroke="#f1f3f5" stroke-width="0.7 px" style="stroke-width:0.7;stroke-miterlimit:4;stroke-dasharray:none;stroke-linecap:square;fill:none;fill-opacity:1;fill-rule: evenodd"/>
<path id="Sketch_w0028"  d="M 230.8313 363.780709 L 225.8313 363.782105 L 225.830504 360.932105 L 230.830504 360.930709 L 230.8313 363.780709 " stroke="#f1f3f5" stroke-width="0.7 px" style="stroke-width:0.7;stroke-miterlimit:4;stroke-dasharray:none;stroke-linecap:square;fill:none;fill-opacity:1;fill-rule: evenodd"/>
<path id="Sketch_w0029"  d="M 254.282278 392.349161 L 251.432278 392.349957 L 251.429486 382.349958 L 254.279486 382.349162 L 254.282278 392.349161 " stroke="#f1f3f5" stroke-width="0.7 px" style="stroke-width:0.7;stroke-miterlimit:4;stroke-dasharray:none;stroke-linecap:square;fill:none;fill-opacity:1;fill-rule: evenodd"/>
<path id="Sketch_w0030"  d="M 254.268317 342.349163 L 251.418317 342.349959 L 251.415524 332.34996 L 254.265524 332.349164 L 254.268317 342.349163 " stroke="#f1f3f5" stroke-width="0.7 px" style="stroke-width:0.7;stroke-miterlimit:4;stroke-dasharray:none;stroke-linecap:square;fill:none;fill-opacity:1;fill-rule: evenodd"/>
<path id="Sketch_w0031"  d="M 184.341696 349.461292 L 184.344488 354.461291 L 181.494488 354.462883 L 181.491696 349.462884 L 184.341696 349.461292 " stroke="#f1f3f5" stroke-width="0.7 px" style="stroke-width:0.7;stroke-miterlimit:4;stroke-dasharray:none;stroke-linecap:square;fill:none;fill-opacity:1;fill-rule: evenodd"/>
<path id="Sketch_w0032"  d="M 184.322149 314.461298 L 184.324942 319.461297 L 181.474942 319.462889 L 181.47215 314.462889 L 184.322149 314.461298 " stroke="#f1f3f5" stroke-width="0.7 px" style="stroke-width:0.7;stroke-miterlimit:4;stroke-dasharray:none;stroke-linecap:square;fill:none;fill-opacity:1;fill-rule: evenodd"/>
<path id="Sketch_w0033"  d="M 212.884053 291.002343 L 212.885644 293.852343 L 202.885646 293.857927 L 202.884054 291.007928 L 212.884053 291.002343 " stroke="#f1f3f5" stroke-width="0.7 px" style="stroke-width:0.7;stroke-miterlimit:4;stroke-dasharray:none;stroke-linecap:square;fill:none;fill-opacity:1;fill-rule: evenodd"/>
<path id="Sketch_w0034"  d="M 162.88406 291.030266 L 162.885652 293.880266 L 152.885654 293.885851 L 152.884062 291.035851 L 162.88406 291.030266 " stroke="#f1f3f5" stroke-width="0.7 px" style="stroke-width:0.7;stroke-miterlimit:4;stroke-dasharray:none;stroke-linecap:square;fill:none;fill-opacity:1;fill-rule: evenodd"/>
<path id="Sketch_w0035"  d="M 170.015715 360.954899 L 175.015713 360.95071 L 175.018101 363.800709 L 170.018102 363.804898 L 170.015715 360.954899 " stroke="#f1f3f5" stroke-width="0.7 px" style="stroke-width:0.7;stroke-miterlimit:4;stroke-dasharray:none;stroke-linecap:square;fill:none;fill-opacity:1;fill-rule: evenodd"/>
<path id="Sketch_w0036"  d="M 135.015727 360.984218 L 140.015725 360.98003 L 140.018113 363.830029 L 135.018115 363.834217 L 135.015727 360.984218 " stroke="#f1f3f5" stroke-width="0.7 px" style="stroke-width:0.7;stroke-miterlimit:4;stroke-dasharray:none;stroke-linecap:square;fill:none;fill-opacity:1;fill-rule: evenodd"/>
<path id="Sketch_w0037"  d="M 111.548798 332.428867 L 114.398797 332.426479 L 114.407174 342.426476 L 111.557175 342.428863 L 111.548798 332.428867 " stroke="#f1f3f5" stroke-width="0.7 px" style="stroke-width:0.7;stroke-miterlimit:4;stroke-dasharray:none;stroke-linecap:square;fill:none;fill-opacity:1;fill-rule: evenodd"/>
<path id="Sketch_w0038"  d="M 111.590683 382.428849 L 114.440682 382.426462 L 114.449059 392.426458 L 111.59906 392.428846 L 111.590683 382.428849 " stroke="#f1f3f5" stroke-width="0.7 px" style="stroke-width:0.7;stroke-miterlimit:4;stroke-dasharray:none;stroke-linecap:square;fill:none;fill-opacity:1;fill-rule: evenodd"/>
<path id="Sketch_w0039"  d="M 296.6453244907425 267.1623233520586 L 296.6453244907425 270.1623233520586 L 306.7463450051761 315.0123233520586 A 5 5 0 0 0 311.645 319.012L 341.6453244907425 319.0123233520586 A 5 5 0 0 0 346.544 315.012L 356.6453244907425 270.1623233520586 L 356.6453244907425 267.1623233520586 L 346.6453244907425 267.1623233520586 L 346.6453244907425 270.1623233520586 L 306.6453244907425 270.1623233520586 L 306.6453244907425 267.1623233520586 L 296.6453244907425 267.1623233520586 " stroke="#f1f3f5" stroke-width="0.7 px" style="stroke-width:0.7;stroke-miterlimit:4;stroke-dasharray:none;stroke-linecap:square;fill:none;fill-opacity:1;fill-rule: evenodd"/>
<path id="Sketch_w0040"  d="M 311.6453244907425 314.0123233520586 L 311.6453244907425 311.1623233520586 L 321.6453244907425 311.1623233520586 L 321.6453244907425 314.0123233520586 L 311.6453244907425 314.0123233520586 " stroke="#f1f3f5" stroke-width="0.7 px" style="stroke-width:0.7;stroke-miterlimit:4;stroke-dasharray:none;stroke-linecap:square;fill:none;fill-opacity:1;fill-rule: evenodd"/>
<path id="Sketch_w0041"  d="M 331.6453244907425 314.0123233520586 L 331.6453244907425 311.1623233520586 L 341.6453244907425 311.1623233520586 L 341.6453244907425 314.0123233520586 L 331.6453244907425 314.0123233520586 " stroke="#f1f3f5" stroke-width="0.7 px" style="stroke-width:0.7;stroke-miterlimit:4;stroke-dasharray:none;stroke-linecap:square;fill:none;fill-opacity:1;fill-rule: evenodd"/>
<path id="Sketch_w0042"  d="M 357.6988224855665 267.199921 L 357.6988224855665 270.199921 L 367.7998430000001 315.04992100000004 A 5 5 0 0 0 372.699 319.05L 402.6988224855665 319.04992100000004 A 5 5 0 0 0 407.598 315.05L 417.6988224855665 270.199921 L 417.6988224855665 267.199921 L 407.6988224855665 267.199921 L 407.6988224855665 270.199921 L 367.6988224855665 270.199921 L 367.6988224855665 267.199921 L 357.6988224855665 267.199921 " stroke="#f1f3f5" stroke-width="0.7 px" style="stroke-width:0.7;stroke-miterlimit:4;stroke-dasharray:none;stroke-linecap:square;fill:none;fill-opacity:1;fill-rule: evenodd"/>
<path id="Sketch_w0043"  d="M 372.6988224855665 314.04992100000004 L 372.6988224855665 311.199921 L 382.6988224855665 311.199921 L 382.6988224855665 314.04992100000004 L 372.6988224855665 314.04992100000004 " stroke="#f1f3f5" stroke-width="0.7 px" style="stroke-width:0.7;stroke-miterlimit:4;stroke-dasharray:none;stroke-linecap:square;fill:none;fill-opacity:1;fill-rule: evenodd"/>
<path id="Sketch_w0044"  d="M 392.6988224855665 314.04992100000004 L 392.6988224855665 311.199921 L 402.6988224855665 311.199921 L 402.6988224855665 314.04992100000004 L 392.6988224855665 314.04992100000004 " stroke="#f1f3f5" stroke-width="0.7 px" style="stroke-width:0.7;stroke-miterlimit:4;stroke-dasharray:none;stroke-linecap:square;fill:none;fill-opacity:1;fill-rule: evenodd"/>
<path id="Sketch_w0045"  d="M 357.7506107327998 217.22849138804654 L 357.7506107327998 220.22849138804654 L 367.85163124723346 265.07849138804653 A 5 5 0 0 0 372.751 269.078L 402.7506107327998 269.07849138804653 A 5 5 0 0 0 407.65 265.078L 417.7506107327998 220.22849138804654 L 417.7506107327998 217.22849138804654 L 407.7506107327998 217.22849138804654 L 407.7506107327998 220.22849138804654 L 367.7506107327998 220.22849138804654 L 367.7506107327998 217.22849138804654 L 357.7506107327998 217.22849138804654 " stroke="#f1f3f5" stroke-width="0.7 px" style="stroke-width:0.7;stroke-miterlimit:4;stroke-dasharray:none;stroke-linecap:square;fill:none;fill-opacity:1;fill-rule: evenodd"/>
<path id="Sketch_w0046"  d="M 372.7506107327998 264.07849138804653 L 372.7506107327998 261.22849138804656 L 382.7506107327998 261.22849138804656 L 382.7506107327998 264.07849138804653 L 372.7506107327998 264.07849138804653 " stroke="#f1f3f5" stroke-width="0.7 px" style="stroke-width:0.7;stroke-miterlimit:4;stroke-dasharray:none;stroke-linecap:square;fill:none;fill-opacity:1;fill-rule: evenodd"/>
<path id="Sketch_w0047"  d="M 392.7506107327998 264.07849138804653 L 392.7506107327998 261.22849138804656 L 402.7506107327998 261.22849138804656 L 402.7506107327998 264.07849138804653 L 392.7506107327998 264.07849138804653 " stroke="#f1f3f5" stroke-width="0.7 px" style="stroke-width:0.7;stroke-miterlimit:4;stroke-dasharray:none;stroke-linecap:square;fill:none;fill-opacity:1;fill-rule: evenodd"/>
<path id="Sketch_w0048"  d="M 296.7831124855665 217.218277 L 296.7831124855665 220.218277 L 306.88413300000013 265.068277 A 5 5 0 0 0 311.783 269.068L 341.7831124855665 269.068277 A 5 5 0 0 0 346.682 265.068L 356.7831124855665 220.218277 L 356.7831124855665 217.218277 L 346.7831124855665 217.218277 L 346.7831124855665 220.218277 L 306.7831124855665 220.218277 L 306.7831124855665 217.218277 L 296.7831124855665 217.218277 " stroke="#f1f3f5" stroke-width="0.7 px" style="stroke-width:0.7;stroke-miterlimit:4;stroke-dasharray:none;stroke-linecap:square;fill:none;fill-opacity:1;fill-rule: evenodd"/>
<path id="Sketch_w0049"  d="M 311.7831124855665 264.068277 L 311.7831124855665 261.218277 L 321.7831124855665 261.218277 L 321.7831124855665 264.068277 L 311.7831124855665 264.068277 " stroke="#f1f3f5" stroke-width="0.7 px" style="stroke-width:0.7;stroke-miterlimit:4;stroke-dasharray:none;stroke-linecap:square;fill:none;fill-opacity:1;fill-rule: evenodd"/>
<path id="Sketch_w0050"  d="M 331.7831124855665 264.068277 L 331.7831124855665 261.218277 L 341.7831124855665 261.218277 L 341.7831124855665 264.068277 L 331.7831124855665 264.068277 " stroke="#f1f3f5" stroke-width="0.7 px" style="stroke-width:0.7;stroke-miterlimit:4;stroke-dasharray:none;stroke-linecap:square;fill:none;fill-opacity:1;fill-rule: evenodd"/>
<path id="Sketch_w0051"  d="M 422.69414100798434 98.4833826706661 L 422.69414100798434 143.48338267066612 L 429.69414100798434 143.48338267066612 L 429.69414100798434 133.48338267066612 L 435.49414100798435 133.48338267066612 L 435.49414100798435 143.48338267066612 L 442.49414100798435 143.48338267066612 L 442.49414100798435 108.38338267066611 L 477.5941410079844 108.38338267066611 L 477.5941410079844 101.38338267066611 L 467.5941410079844 101.38338267066611 L 467.5941410079844 95.58338267066611 L 477.5941410079844 95.58338267066611 L 477.5941410079844 88.58338267066608 L 432.5941410079844 88.58338267066608 A 9.9 9.9 0 0 0 422.694 98.4834" stroke="#f1f3f5" stroke-width="0.7 px" style="stroke-width:0.7;stroke-miterlimit:4;stroke-dasharray:none;stroke-linecap:square;fill:none;fill-opacity:1;fill-rule: evenodd"/>
<path id="Sketch_w0052"  d="M 435.5141410079844 101.10621034323631 A 3.925 3.925 0 1 1 435.514 95.8606L 435.5141410079844 101.10621034323631 " stroke="#f1f3f5" stroke-width="0.7 px" style="stroke-width:0.7;stroke-miterlimit:4;stroke-dasharray:none;stroke-linecap:square;fill:none;fill-opacity:1;fill-rule: evenodd"/>
<title>b'Sketch'</title>
</g>
</svg>